<svg width="28" height="26" viewBox="0 0 28 26" fill="none" xmlns="http://www.w3.org/2000/svg">
<path d="M24.8591 9.08347L24.3829 8.82416C24.3089 8.78389 24.2725 8.76368 24.2368 8.74274C23.8817 8.53452 23.5823 8.24683 23.3639 7.90265C23.3419 7.86801 23.3212 7.8317 23.2788 7.75992C23.2365 7.68823 23.2151 7.6519 23.1954 7.61594C22.9994 7.25786 22.8934 6.85881 22.8871 6.45265C22.8865 6.41182 22.8866 6.3701 22.888 6.28716L22.8973 5.74586C22.9122 4.87965 22.9197 4.4452 22.7953 4.0553C22.6849 3.70898 22.5 3.38999 22.2532 3.11929C21.9742 2.81329 21.5881 2.59499 20.8149 2.15893L20.1727 1.79673C19.4017 1.36189 19.0161 1.1444 18.6068 1.06148C18.2447 0.988127 17.871 0.991527 17.5102 1.0708C17.1029 1.16028 16.7221 1.38344 15.961 1.82951L15.9566 1.83153L15.4965 2.1012C15.4237 2.14384 15.3869 2.16534 15.3504 2.18518C14.9885 2.38211 14.5845 2.49101 14.1707 2.50401C14.129 2.50532 14.0865 2.50532 14.0017 2.50532C13.9174 2.50532 13.8731 2.50532 13.8315 2.50401C13.4167 2.49095 13.0119 2.38147 12.6494 2.18372C12.6129 2.16379 12.5767 2.14212 12.5038 2.09928L12.0408 1.82718C11.2744 1.37689 10.8907 1.1514 10.4812 1.06148C10.1189 0.981926 9.74391 0.979724 9.38046 1.05402C8.97009 1.13792 8.58437 1.35702 7.81293 1.79524L7.8095 1.79673L7.17529 2.15699L7.16827 2.16119C6.40378 2.59546 6.02061 2.81312 5.74397 3.11787C5.49849 3.3883 5.315 3.70679 5.20517 4.05219C5.08103 4.44262 5.08765 4.878 5.10261 5.7483L5.1119 6.28883C5.11331 6.37068 5.11575 6.41135 5.11514 6.45161C5.10898 6.8586 5.00159 7.25846 4.80507 7.61718C4.78563 7.65266 4.76469 7.68814 4.72287 7.759C4.68102 7.82991 4.66075 7.86517 4.63905 7.89939C4.41962 8.24542 4.11892 8.53479 3.76153 8.74336C3.72618 8.76399 3.68892 8.78383 3.61572 8.82353L3.1455 9.07857C2.36316 9.5029 1.97208 9.71526 1.68751 10.0174C1.43577 10.2848 1.2456 10.6019 1.12951 10.9472C0.998286 11.3376 0.998397 11.7754 1.00043 12.6508L1.00209 13.3663C1.00411 14.2359 1.00688 14.6704 1.13839 15.0581C1.25474 15.4011 1.44353 15.7164 1.69386 15.9821C1.97682 16.2825 2.36401 16.4935 3.14042 16.9162L3.60645 17.17C3.68576 17.2132 3.72567 17.2345 3.76391 17.257C4.11806 17.4657 4.41641 17.7543 4.63397 18.0983C4.65747 18.1355 4.68004 18.1741 4.72515 18.2512C4.76972 18.3274 4.79251 18.3655 4.81312 18.4037C5.00387 18.7572 5.106 19.1499 5.11296 19.5496C5.11371 19.5928 5.11307 19.6364 5.11156 19.7242L5.10261 20.2429C5.08755 21.1162 5.08098 21.5534 5.20586 21.9449C5.31633 22.2912 5.50097 22.6102 5.74778 22.8809C6.02677 23.1869 6.41354 23.405 7.18672 23.8411L7.82879 24.2032C8.5998 24.6381 8.98516 24.8553 9.39448 24.9382C9.7566 25.0116 10.1305 25.0087 10.4913 24.9295C10.8991 24.8398 11.2812 24.6159 12.0446 24.1686L12.5047 23.8989C12.5775 23.8562 12.6144 23.8349 12.6509 23.815C13.0128 23.6181 13.4164 23.5086 13.8302 23.4956C13.8719 23.4943 13.9144 23.4943 13.9992 23.4943C14.0842 23.4943 14.1266 23.4943 14.1684 23.4956C14.5832 23.5087 14.9892 23.6185 15.3517 23.8162C15.3836 23.8336 15.4156 23.8524 15.4717 23.8854L15.9608 24.1729C16.7273 24.6232 17.1102 24.848 17.5198 24.938C17.882 25.0175 18.2573 25.0208 18.6208 24.9465C19.031 24.8626 19.4175 24.643 20.1885 24.2051L20.8323 23.8394C21.5973 23.4049 21.9808 23.187 22.2576 22.8821C22.503 22.6117 22.6868 22.2933 22.7966 21.9479C22.9198 21.5603 22.9124 21.1283 22.8977 20.2706L22.888 19.7112C22.8866 19.6293 22.8865 19.5886 22.8871 19.5483C22.8932 19.1413 22.9989 18.7412 23.1954 18.3825C23.2148 18.3471 23.2359 18.3113 23.2776 18.2407C23.3194 18.1698 23.3411 18.1344 23.3628 18.1002C23.5822 17.7542 23.8832 17.4646 24.2406 17.256C24.2755 17.2356 24.3115 17.2161 24.383 17.1774L24.3854 17.1762L24.8556 16.9212C25.638 16.4969 26.0298 16.2843 26.3144 15.9821C26.5661 15.7148 26.756 15.3981 26.8721 15.0528C27.0026 14.6647 27.0016 14.2295 26.9995 13.3643L26.9978 12.6334C26.9958 11.7638 26.9947 11.3294 26.8632 10.9416C26.7469 10.5986 26.557 10.2834 26.3067 10.0176C26.024 9.71758 25.6363 9.50648 24.8614 9.08455L24.8591 9.08347Z" stroke="#ABAFB6" stroke-width="2" stroke-linecap="round" stroke-linejoin="round"/>
<path d="M8.79838 13.0001C8.79838 15.812 11.1274 18.0915 14.0004 18.0915C16.8734 18.0915 19.2024 15.812 19.2024 13.0001C19.2024 10.1882 16.8734 7.90867 14.0004 7.90867C11.1274 7.90867 8.79838 10.1882 8.79838 13.0001Z" stroke="#ABAFB6" stroke-width="2" stroke-linecap="round" stroke-linejoin="round"/>
</svg>
