<svg width="142" height="104" viewBox="0 0 142 104" fill="none" xmlns="http://www.w3.org/2000/svg">
<path d="M138.45 75.5C140.402 75.5 142 73.8969 142 71.9375V64.8125C142 62.8531 140.402 61.25 138.45 61.25H3.55C1.5975 61.25 0 62.8531 0 64.8125V71.9375C0 73.8969 1.5975 75.5 3.55 75.5H14.2V89.75H3.55C1.5975 89.75 0 91.3531 0 93.3125V100.438C0 102.397 1.5975 104 3.55 104H138.45C140.402 104 142 102.397 142 100.438V93.3125C142 91.3531 140.402 89.75 138.45 89.75H127.8V75.5H138.45ZM63.9 89.75H28.4V75.5H63.9V89.75ZM113.6 89.75H78.1V75.5H113.6V89.75Z" fill="url(#paint0_linear_176_442)"/>
<path d="M138.45 45.25C140.402 45.25 142 43.6469 142 41.6875V34.5625C142 32.6031 140.402 31 138.45 31H3.55C1.5975 31 0 32.6031 0 34.5625V41.6875C0 43.6469 1.5975 45.25 3.55 45.25H14.2V59.5H3.55C1.5975 59.5 0 61.1031 0 63.0625V70.1875C0 72.1469 1.5975 73.75 3.55 73.75H138.45C140.402 73.75 142 72.1469 142 70.1875V63.0625C142 61.1031 140.402 59.5 138.45 59.5H127.8V45.25H138.45ZM63.9 59.5H28.4V45.25H63.9V59.5ZM113.6 59.5H78.1V45.25H113.6V59.5Z" fill="url(#paint1_linear_176_442)"/>
<path d="M138.45 15C140.402 15 142 13.3969 142 11.4375V4.3125C142 2.35312 140.402 0.75 138.45 0.75H3.55C1.5975 0.75 0 2.35312 0 4.3125V11.4375C0 13.3969 1.5975 15 3.55 15H14.2V29.25H3.55C1.5975 29.25 0 30.8531 0 32.8125V39.9375C0 41.8969 1.5975 43.5 3.55 43.5H138.45C140.402 43.5 142 41.8969 142 39.9375V32.8125C142 30.8531 140.402 29.25 138.45 29.25H127.8V15H138.45ZM63.9 29.25H28.4V15H63.9V29.25ZM113.6 29.25H78.1V15H113.6V29.25Z" fill="url(#paint2_linear_176_442)"/>
<defs>
<linearGradient id="paint0_linear_176_442" x1="-109.519" y1="54.7655" x2="175.831" y2="58.8486" gradientUnits="userSpaceOnUse">
<stop offset="0.174199" stop-color="#1348F9"/>
<stop offset="0.774517" stop-color="#1E86FA"/>
</linearGradient>
<linearGradient id="paint1_linear_176_442" x1="-109.519" y1="24.5155" x2="175.831" y2="28.5986" gradientUnits="userSpaceOnUse">
<stop offset="0.174199" stop-color="#1348F9"/>
<stop offset="0.774517" stop-color="#1E86FA"/>
</linearGradient>
<linearGradient id="paint2_linear_176_442" x1="-109.519" y1="-5.73447" x2="175.831" y2="-1.6514" gradientUnits="userSpaceOnUse">
<stop offset="0.174199" stop-color="#1348F9"/>
<stop offset="0.774517" stop-color="#1E86FA"/>
</linearGradient>
</defs>
</svg>
