<svg width="40" height="40" viewBox="0 0 40 40" fill="none" xmlns="http://www.w3.org/2000/svg">
<path fill-rule="evenodd" clip-rule="evenodd" d="M3.00966 0.448152C1.88831 0.71278 0.866049 1.74699 0.604888 2.88107C0.498891 3.34121 0.498891 36.2795 0.604888 36.7396C0.82409 37.6915 1.48799 38.4987 2.41715 38.9429L2.99039 39.2169L12.6119 39.2373L22.2335 39.2577L22.4566 39.0343C22.7332 38.7575 22.7412 38.5041 22.4834 38.1974L22.287 37.9636H12.937C2.33832 37.9636 3.04737 38.0039 2.41078 37.3666C1.76069 36.7158 1.81433 38.295 1.81433 19.8103C1.81433 1.32414 1.76054 2.9053 2.41146 2.25315C3.05754 1.60586 1.96957 1.65219 16.0072 1.6749L28.4084 1.69503L28.7119 1.85925C29.0696 2.05286 29.4357 2.42527 29.6329 2.79638C29.768 3.0506 29.7751 3.44853 29.7943 11.92L29.8145 20.7779L29.2146 20.8303C26.5176 21.0658 23.9702 22.6281 22.397 25.0112C20.4396 27.9764 20.4414 32.0255 22.4016 35.0283C23.558 36.7998 25.2667 38.1185 27.2807 38.794C31.5735 40.2337 36.3444 38.2236 38.4179 34.1016C38.7836 33.3748 39.113 32.3561 39.236 31.5718C39.329 30.9793 39.3365 31.0971 39.3737 33.7136C39.3953 35.2365 39.4126 28.9459 39.412 19.7344L39.4109 2.98627L39.3726 16.0885C39.3516 23.2948 39.3079 28.9609 39.2755 28.6799C39.0356 26.5967 37.6898 24.2247 35.9579 22.8325C35.2953 22.2998 34.2774 21.7092 34.0218 21.7092C33.6604 21.7092 33.3782 21.9636 33.3782 22.2894C33.3782 22.6603 33.4855 22.8229 33.8549 23.0109C35.247 23.7195 36.6263 25.1687 37.319 26.6503C38.7226 29.6532 38.0851 33.261 35.7349 35.6137C34.7068 36.6429 33.5044 37.3227 32.0163 37.7158C31.4039 37.8777 31.1212 37.9076 30.1915 37.9092C28.9795 37.9112 28.4309 37.8189 27.3863 37.4373C24.9758 36.5566 23.1573 34.535 22.4702 31.9722C22.2981 31.3306 22.2743 31.0936 22.2743 30.0263C22.2743 28.9565 22.298 28.7228 22.4719 28.0738C23.394 24.6328 26.2921 22.2847 29.832 22.1105C30.625 22.0715 30.7456 22.047 30.9132 21.8915L31.1019 21.7164V12.3685C31.1019 3.21763 31.0988 3.01134 30.9504 2.58857C30.6022 1.5972 29.8084 0.815319 28.8484 0.518562C28.3616 0.368019 28.1734 0.365892 15.8242 0.373412C8.87295 0.377665 3.16733 0.410934 3.00966 0.448152ZM0.561716 19.8103C0.561716 29.0218 0.570593 32.7902 0.581367 28.1844C0.592141 23.5787 0.592141 16.0421 0.581367 11.4363C0.570593 6.83059 0.561716 10.5989 0.561716 19.8103ZM5.68394 4.16912C5.26572 4.35893 4.88983 4.70954 4.67192 5.11302C4.51425 5.40499 4.50697 5.51854 4.48519 8.024C4.466 10.2293 4.4811 10.6952 4.58307 11.0463C4.72261 11.5268 5.10714 11.994 5.56497 12.2393L5.87362 12.4047L15.2062 12.426C20.3391 12.4377 24.6147 12.4287 24.7074 12.4061C25.1736 12.2922 25.3397 11.6805 24.9975 11.3379L24.8113 11.1515H15.5853C5.43181 11.1515 6.01543 11.1793 5.84388 10.6867C5.78971 10.5311 5.75981 9.65088 5.75981 8.21343C5.75981 5.76654 5.79578 5.52401 6.18069 5.37749C6.31218 5.32744 9.66819 5.30799 15.9321 5.32106L25.4831 5.34088L25.6558 5.51368C25.8243 5.68215 25.8296 5.73517 25.8666 7.59037C25.9042 9.47839 25.9061 9.4954 26.0837 9.63926C26.3438 9.84981 26.7143 9.82634 26.9565 9.58404L27.1565 9.38375L27.1557 7.47629C27.155 5.63635 27.1487 5.5553 26.9776 5.18897C26.7745 4.75443 26.423 4.38369 26.0265 4.18606C25.7679 4.05716 25.2075 4.04866 15.8891 4.03187C6.10292 4.01425 6.02272 4.01531 5.68394 4.16912ZM22.121 6.52373C21.8471 6.73945 21.8404 7.20384 22.1074 7.47105C22.2098 7.57359 22.3464 7.65752 22.4109 7.65752C22.5107 7.65752 22.5281 7.80555 22.5281 8.65078V9.64405L22.7499 9.86607C23.0329 10.1494 23.3707 10.163 23.6317 9.90161C23.8168 9.71636 23.818 9.7058 23.818 8.22718C23.818 6.74856 23.8168 6.738 23.6317 6.55275C23.4675 6.3883 23.379 6.36628 22.8832 6.36628C22.4292 6.36628 22.2824 6.39658 22.121 6.52373ZM5.49 14.8646C5.11116 15.0369 4.67564 15.5328 4.55803 15.9258C4.42161 16.3816 4.4424 18.5738 4.58702 18.984C4.7305 19.3912 5.09037 19.7822 5.49425 19.9699C5.7627 20.0946 6.00625 20.1111 7.6022 20.1125C9.57661 20.1143 9.6908 20.0945 10.1801 19.6644C10.6457 19.2552 10.7296 18.9063 10.7296 17.3798C10.7296 16.1416 10.7175 16.026 10.553 15.6915C10.4558 15.4941 10.2681 15.2411 10.1357 15.1294C9.67805 14.7431 9.54194 14.7212 7.6022 14.723C6.01346 14.7245 5.76095 14.7414 5.49 14.8646ZM13.5658 14.9336C13.2706 15.088 13.0976 15.2467 12.9311 15.516L12.7023 15.8861L12.679 17.3375L12.6557 18.7889L12.872 19.2047C13.0403 19.5282 13.1801 19.6758 13.5023 19.8702L13.9163 20.1199L15.8637 20.0981L17.8112 20.0762L18.14 19.8479C18.3552 19.6984 18.5409 19.4772 18.6775 19.2076C18.8824 18.8031 18.8861 18.7709 18.8861 17.4128C18.8861 16.0468 18.8835 16.025 18.6742 15.6225C18.5107 15.3082 18.3684 15.1586 18.0516 14.9682L17.6409 14.7213H15.8062H13.9716L13.5658 14.9336ZM21.8625 14.8821C21.4801 15.0716 21.1139 15.4885 21.003 15.8607C20.9558 16.019 20.9336 16.7124 20.9482 17.5755C20.9725 19.0117 20.9745 19.0273 21.182 19.3408C21.2971 19.5148 21.5335 19.7514 21.7074 19.8666L22.0234 20.0762L23.9409 20.0988C25.7722 20.1204 25.8727 20.1142 26.1756 19.9594C26.5671 19.7595 26.8308 19.4855 27.0134 19.0888C27.1322 18.8305 27.1534 18.5837 27.1548 17.4417C27.1557 16.6799 27.1218 16.0058 27.0763 15.8846C26.9162 15.4573 26.6068 15.1055 26.2225 14.9137C25.8419 14.7239 25.8128 14.7213 24.0118 14.7214C22.3065 14.7215 22.1654 14.732 21.8625 14.8821ZM5.94502 16.1204C5.81027 16.219 5.79775 16.3277 5.79775 17.4C5.79775 18.2814 5.82355 18.6028 5.90185 18.6973C5.99267 18.8068 6.20876 18.8229 7.58467 18.8229C8.91863 18.8229 9.18184 18.8044 9.2826 18.7036C9.45863 18.5273 9.45863 16.3082 9.2826 16.1319C9.11461 15.9638 6.1728 15.9536 5.94502 16.1204ZM14.0724 16.1814C13.9791 16.3147 13.9543 16.5745 13.9543 17.4178C13.9543 18.9328 13.8125 18.8229 15.7678 18.8229C17.1995 18.8229 17.3567 18.8101 17.4707 18.684C17.5758 18.5677 17.5963 18.3593 17.5963 17.4045C17.5963 16.3961 17.5802 16.2494 17.4575 16.1383C17.3378 16.0299 17.1036 16.0126 15.7546 16.0126C14.2243 16.0126 14.188 16.0162 14.0724 16.1814ZM22.3502 16.1515C22.2451 16.2678 22.2246 16.4762 22.2246 17.431C22.2246 18.4394 22.2407 18.5861 22.3634 18.6972C22.483 18.8056 22.7173 18.8229 24.0662 18.8229C26.0063 18.8229 25.8666 18.9319 25.8666 17.4178C25.8666 15.9028 26.0084 16.0126 24.053 16.0126C22.6214 16.0126 22.4641 16.0254 22.3502 16.1515ZM5.53219 22.6245C5.10608 22.8211 4.88035 23.0292 4.67124 23.4182C4.51994 23.6996 4.50788 23.8316 4.50788 25.2091V26.6962L4.73748 27.068C4.87967 27.2982 5.1085 27.5274 5.33825 27.6697L5.70943 27.8996L7.34696 27.9253C9.28404 27.9556 9.65666 27.8979 10.0979 27.4988C10.6817 26.9709 10.7296 26.7966 10.7296 25.2032C10.7296 23.6549 10.6846 23.4608 10.2172 22.9929C9.74543 22.5207 9.68534 22.5086 7.69462 22.4869C5.9888 22.4682 5.852 22.4769 5.53219 22.6245ZM13.8025 22.5686C13.436 22.6849 12.8483 23.2898 12.747 23.6551C12.6376 24.0496 12.6406 26.3593 12.751 26.7282C12.8663 27.1133 13.2143 27.5238 13.6012 27.7309C13.9021 27.892 13.9999 27.8996 15.7753 27.8996C17.5353 27.8996 17.6504 27.8908 17.9377 27.7357C18.1046 27.6454 18.3333 27.4745 18.4458 27.3559C18.837 26.9433 18.8863 26.6996 18.8845 25.1866C18.8826 23.6319 18.8283 23.4064 18.345 22.9468C17.8931 22.5169 17.6222 22.4679 15.7467 22.4765C14.7502 22.4812 13.9602 22.5185 13.8025 22.5686ZM5.94608 23.9465C5.76626 24.1264 5.75981 24.1693 5.75981 25.1828C5.75981 26.6796 5.61436 26.5704 7.60789 26.5704C8.76035 26.5704 9.24565 26.5444 9.31075 26.4792C9.37387 26.416 9.4018 26.0211 9.4018 25.1923C9.4018 24.0427 9.39527 23.9919 9.23313 23.8783C9.09466 23.7811 8.80254 23.76 7.59841 23.76C6.14298 23.76 6.13092 23.7614 5.94608 23.9465ZM14.2578 23.8127C13.9923 23.9078 13.9543 24.0794 13.9543 25.1847C13.9543 25.792 13.9891 26.3417 14.0328 26.4235C14.1068 26.5619 14.2078 26.5704 15.7753 26.5704C17.3427 26.5704 17.4438 26.5619 17.5177 26.4235C17.5615 26.3414 17.5963 25.7876 17.5963 25.1702C17.5963 23.6624 17.7167 23.7583 15.8322 23.766C15.0288 23.7693 14.3204 23.7903 14.2578 23.8127ZM29.6949 24.4782C29.5334 24.6397 29.5086 24.7338 29.5086 25.1841V25.7036L29.0723 25.8378C27.2043 26.4124 26.4676 28.4116 27.6553 29.6827C28.0805 30.1378 28.6256 30.3868 29.7464 30.6381C31.3938 31.0073 31.7445 31.1774 31.8517 31.6594C31.9766 32.2211 31.5941 32.7745 30.9276 32.9961C30.3617 33.1842 29.484 33.1156 29.0269 32.8475C28.8343 32.7344 28.6427 32.5783 28.6011 32.5005C28.4884 32.2898 28.1158 32.1819 27.8371 32.2792C27.5657 32.3739 27.3523 32.7376 27.4169 32.9953C27.5292 33.4431 28.3057 34.0487 29.0723 34.2863L29.5086 34.4215V34.9428C29.5086 35.3949 29.5332 35.4887 29.6949 35.6504C29.9482 35.9041 30.3588 35.9041 30.6122 35.6504C30.7739 35.4886 30.7985 35.3951 30.7985 34.9409V34.4178L31.1209 34.3213C31.9781 34.0646 32.6651 33.5219 33.0026 32.8347C33.218 32.396 33.2543 31.5963 33.0815 31.0961C32.9435 30.6967 32.4446 30.1696 31.9827 29.9353C31.7752 29.8301 31.0148 29.5966 30.293 29.4167C28.8657 29.0608 28.5827 28.9207 28.4446 28.5019C28.2726 27.9802 28.5336 27.523 29.1857 27.2036C30.0037 26.8029 31.0004 26.9577 31.6522 27.5869C31.8782 27.8049 31.9967 27.8616 32.227 27.8616C32.8405 27.8616 33.0616 27.2 32.6173 26.6935C32.3043 26.3366 31.7589 25.999 31.2347 25.8378L30.7985 25.7036V25.1841C30.7985 24.7338 30.7736 24.6397 30.6122 24.4782C30.3588 24.2245 29.9482 24.2245 29.6949 24.4782ZM5.91156 30.2833C5.5548 30.3608 5.23226 30.5371 4.97345 30.7962C4.54893 31.2212 4.5113 31.3689 4.48223 32.7227C4.44976 34.2342 4.5204 34.6278 4.90524 35.0778C5.3925 35.6476 5.54205 35.6814 7.58619 35.6833L9.37456 35.685L9.78603 35.4761C10.6009 35.0625 10.8069 34.4576 10.75 32.6468C10.7121 31.4415 10.6243 31.1442 10.1865 30.7376C9.70218 30.2879 9.57881 30.2622 7.80843 30.2432C6.91121 30.2335 6.05762 30.2515 5.91156 30.2833ZM14.0301 30.2996C13.5279 30.3979 13.117 30.7171 12.8731 31.1988C12.6686 31.6024 12.6644 31.6379 12.6644 32.9666C12.6644 34.4705 12.7126 34.69 13.1425 35.1436C13.6207 35.6482 13.7835 35.6815 15.7856 35.6833L17.579 35.685L17.9847 35.4728C18.2803 35.3182 18.4528 35.1598 18.6194 34.89L18.8482 34.5196V32.951V31.3824L18.6389 31.0658C18.3677 30.6555 17.9592 30.3899 17.4513 30.2935C16.9638 30.2009 14.5124 30.2053 14.0301 30.2996ZM5.90185 31.709C5.82355 31.8035 5.79775 32.1249 5.79775 33.0064C5.79775 34.0786 5.81027 34.1873 5.94502 34.286C6.06073 34.3706 6.4206 34.3937 7.62147 34.3937C9.00657 34.3937 9.16249 34.3807 9.27622 34.2548C9.38169 34.1382 9.4018 33.9277 9.4018 32.9408C9.4018 32.1281 9.37372 31.7376 9.31075 31.6746C9.24565 31.6094 8.76149 31.5834 7.61282 31.5834C6.21074 31.5834 5.99275 31.5994 5.90185 31.709ZM14.0798 31.7223C13.975 31.8382 13.9543 32.0452 13.9543 32.9756C13.9543 34.497 13.8198 34.3937 15.8014 34.3937C17.2006 34.3937 17.3569 34.3808 17.4707 34.2548C17.6523 34.054 17.6576 31.8836 17.4771 31.7027C17.3763 31.6019 17.1133 31.5834 15.7816 31.5834C14.3509 31.5834 14.1938 31.5962 14.0798 31.7223Z" fill="white"/>
</svg>
