<svg width="28" height="21" viewBox="0 0 28 21" fill="none" xmlns="http://www.w3.org/2000/svg">
<path d="M6.21319 5.38462H21.7879M6.21319 5.38462C5.40554 5.38462 5.00071 5.38462 4.69223 5.54391C4.42088 5.68404 4.20042 5.90746 4.06216 6.18247C3.90498 6.49511 3.90498 6.90468 3.90498 7.72322V15.3232C3.90498 16.9603 3.90498 17.779 4.21934 18.4043C4.49586 18.9543 4.93677 19.4015 5.47947 19.6817C6.09583 20 6.90311 20 8.51526 20H19.4836C21.0958 20 21.9019 20 22.5183 19.6817C23.061 19.4015 23.5039 18.9542 23.7804 18.4042C24.0944 17.7795 24.0944 16.9624 24.0944 15.3285V7.70996C24.0944 6.90025 24.0944 6.49341 23.9381 6.18247C23.7999 5.90746 23.5784 5.68404 23.307 5.54391C22.9986 5.38462 22.5956 5.38462 21.7879 5.38462M6.21319 5.38462H3.86938C2.64489 5.38462 2.03301 5.38462 1.6855 5.16767C1.22174 4.87815 0.958793 4.34808 1.00529 3.79808C1.04016 3.38557 1.40462 2.88668 2.13475 1.88773C2.34592 1.5988 2.45154 1.4543 2.58079 1.34398C2.75315 1.19687 2.95767 1.0924 3.17689 1.0396C3.34131 1 3.51779 1 3.87259 1H24.126C24.4808 1 24.6578 1 24.8222 1.0396C25.0414 1.0924 25.2459 1.19687 25.4182 1.34398C25.5475 1.4543 25.6535 1.59813 25.8647 1.88706C26.5948 2.886 26.9599 3.38549 26.9947 3.79799C27.0412 4.348 26.7773 4.87815 26.3136 5.16767C25.966 5.38462 25.3527 5.38462 24.1282 5.38462H21.7879M11.1155 12.6923H16.8839" stroke="#ABAFB6" stroke-width="2" stroke-linecap="round" stroke-linejoin="round"/>
</svg>
