<svg width="119" height="102" viewBox="0 0 119 102" fill="none" xmlns="http://www.w3.org/2000/svg">
<path d="M51.1505 0.065304C50.2626 -0.188384 49.3113 0.318992 49.0576 1.2069L35.5487 49.5344C35.295 50.4224 35.8024 51.3737 36.6903 51.6274C36.8171 51.6908 37.0074 51.6908 37.1343 51.6908C37.8953 51.6908 38.5295 51.1834 38.7832 50.4858L52.3555 2.15823C52.6092 1.27032 52.1018 0.318992 51.1505 0.065304Z" fill="black"/>
<path d="M82.7344 49.5343L69.1621 1.27015C68.9084 0.382247 67.9571 -0.125129 67.0692 0.128559C66.1813 0.382247 65.6739 1.33358 65.9276 2.22148L79.4365 50.549C79.6268 51.3101 80.3244 51.754 81.0855 51.754C81.2123 51.754 81.4026 51.7541 81.5294 51.6906C82.4173 51.3735 82.9881 50.4222 82.7344 49.5343Z" fill="black"/>
<path d="M59.0786 45.1583C58.1273 45.1583 57.3662 45.9194 57.3662 46.8707V55.6864C57.3662 56.6377 58.1273 57.3988 59.0786 57.3988C60.0299 57.3988 60.791 56.6377 60.791 55.6864V46.8073C60.7276 45.9194 59.9665 45.1583 59.0786 45.1583Z" fill="black"/>
<path d="M59.0786 26.8298C58.1273 26.8298 57.3662 27.5908 57.3662 28.5422V37.3578C57.3662 38.3092 58.1273 39.0702 59.0786 39.0702C60.0299 39.0702 60.791 38.3092 60.791 37.3578V28.5422C60.7276 27.5908 59.9665 26.8298 59.0786 26.8298Z" fill="black"/>
<path d="M59.0786 8.56405C58.1273 8.56405 57.3662 9.32511 57.3662 10.2764V19.0921C57.3662 20.0434 58.1273 20.8045 59.0786 20.8045C60.0299 20.8045 60.791 20.0434 60.791 19.0921V10.213C60.7276 9.32511 59.9665 8.56405 59.0786 8.56405Z" fill="black"/>
<path d="M5.6685 66.7096L5.66846 82.8485C5.66846 84.75 6.09569 86.14 6.95018 87.0186C7.80468 87.8972 9.14662 88.3364 10.9759 88.3364C12.9495 88.3364 14.3336 87.8971 15.1279 87.0186C15.9222 86.1401 16.3194 84.75 16.3194 82.8485V66.7096H21.9879V82.8485C21.9879 86.0739 21.0672 88.5892 19.2258 90.3944C17.3845 92.1996 14.6344 93.1023 10.9759 93.1023C7.24516 93.1023 4.48314 92.1996 2.68981 90.3944C0.896483 88.5892 0 86.0737 0 82.8485V66.7096H5.6685ZM32.5305 66.7096V77.3967L42.6038 66.7096H49.6803L39.6071 76.8912L50.6551 92.4885H43.5425L35.7799 80.8988L32.5305 84.1844V92.4885H26.862V66.7096H32.5305ZM60.945 66.7096C63.4242 66.7096 65.4881 67.4499 67.137 68.9301C68.7859 70.4103 69.6102 72.3059 69.6102 74.6166C69.6102 75.6757 69.4537 76.6444 69.1408 77.523C68.8279 78.4016 68.2924 79.2741 67.5342 80.1406C66.7759 81.0071 65.4581 82.0542 63.5807 83.2818C60.7645 85.0389 58.839 86.6395 57.8039 88.0837H69.7546V92.4885H51.1967C51.1967 90.2982 51.7202 88.4025 52.7673 86.802C53.8143 85.2014 55.7699 83.4502 58.6343 81.5487C60.921 80.0323 62.365 78.9732 62.9669 78.3715C63.5688 77.7698 63.9718 77.2041 64.1764 76.6745C64.3811 76.145 64.4833 75.5914 64.4833 75.0137C64.4833 73.8584 64.1464 72.9196 63.4724 72.1975C62.7984 71.4754 61.8717 71.1144 60.6923 71.1144C59.4166 71.1144 58.4358 71.6319 57.7498 72.6669C57.0638 73.7019 56.7088 75.122 56.6847 76.9273H51.7744V76.4579C51.7744 73.4973 52.6048 71.1324 54.2657 69.3633C55.9265 67.5942 58.153 66.7096 60.945 66.7096ZM92.284 66.7096V71.4755H78.6725V76.9995H91.1648V81.4043H78.6725V87.7227H92.5729V92.4885H73.004V66.7096H92.284ZM101.96 66.7096L101.96 82.8485C101.96 84.75 102.387 86.14 103.242 87.0186C104.096 87.8972 105.438 88.3364 107.268 88.3364C109.241 88.3364 110.625 87.8971 111.42 87.0186C112.214 86.1401 112.611 84.75 112.611 82.8485V66.7096H118.279V82.8485C118.279 86.0739 117.359 88.5892 115.517 90.3944C113.676 92.1996 110.926 93.1023 107.268 93.1023C103.537 93.1023 100.775 92.1996 98.9814 90.3944C97.1881 88.5892 96.2916 86.0737 96.2916 82.8485V66.7096H101.96Z" fill="black"/>
<path d="M13.8295 99.7582C14.2991 99.87 14.6625 100.273 14.6625 100.787C14.6625 101.486 14.2152 101.916 13.2425 101.916H11.8281V98.0028H13.2146C14.0028 98.0028 14.3941 98.4501 14.3941 98.9644C14.3941 99.3557 14.1593 99.6297 13.8295 99.7582ZM13.1642 98.5451H12.4431V99.5682H13.1642C13.5667 99.5682 13.7848 99.3557 13.7848 99.0538C13.7848 98.7352 13.5667 98.5451 13.1642 98.5451ZM13.2146 101.374C13.7904 101.374 14.0475 101.139 14.0475 100.72C14.0475 100.362 13.7904 100.071 13.2146 100.071H12.4431V101.374H13.2146ZM21.0344 101.916H20.3748L19.4524 100.552H19.3853H18.6865V101.916H18.0715V98.0028H19.3853C20.263 98.0028 20.7996 98.5395 20.7996 99.2942C20.7996 99.8421 20.5145 100.261 20.0226 100.446L21.0344 101.916ZM18.6865 98.5731V100.015H19.3573C19.8549 100.015 20.1847 99.7806 20.1847 99.2942C20.1847 98.8079 19.8549 98.5731 19.3573 98.5731H18.6865ZM24.9746 98.0028V101.916H24.3596V98.0028H24.9746ZM29.7868 98.0028C30.9161 98.0028 31.7658 98.8694 31.7658 99.9483C31.7658 101.05 30.9161 101.916 29.7868 101.916H28.5234V98.0028H29.7868ZM29.7812 101.335C30.6366 101.335 31.1397 100.714 31.1397 99.9483C31.1397 99.2048 30.6366 98.5843 29.7812 98.5843H29.1383V101.335H29.7812ZM38.8981 99.898C39.0211 101.178 38.1658 101.972 37.1315 101.972C36.0582 101.972 35.119 101.145 35.119 99.9595C35.119 98.7743 36.0805 97.9469 37.1315 97.9469C37.6347 97.9469 38.0875 98.1147 38.4341 98.4109L38.0595 98.8358C37.8136 98.6457 37.4949 98.5283 37.1707 98.5283C36.4104 98.5283 35.7563 99.1209 35.7563 99.9595C35.7563 100.798 36.388 101.391 37.1315 101.391C37.7521 101.391 38.2105 101.106 38.3279 100.429H37.2825V99.898H38.8981ZM42.9892 98.0028V101.916H42.3742V98.0028H42.9892ZM49.1934 98.0028H49.8084V101.916H49.3388L47.1529 99.1265V101.916H46.538V98.0028H47.0132L49.1934 100.798V98.0028ZM57.0525 99.898C57.1754 101.178 56.3201 101.972 55.2859 101.972C54.2125 101.972 53.2733 101.145 53.2733 99.9595C53.2733 98.7743 54.2349 97.9469 55.2859 97.9469C55.789 97.9469 56.2418 98.1147 56.5885 98.4109L56.2139 98.8358C55.9679 98.6457 55.6493 98.5283 55.325 98.5283C54.5647 98.5283 53.9106 99.1209 53.9106 99.9595C53.9106 100.798 54.5424 101.391 55.2859 101.391C55.9064 101.391 56.3648 101.106 56.4822 100.429H55.4368V99.898H57.0525ZM67.085 99.7582C67.5546 99.87 67.918 100.273 67.918 100.787C67.918 101.486 67.4708 101.916 66.498 101.916H65.0837V98.0028H66.4701C67.2583 98.0028 67.6497 98.4501 67.6497 98.9644C67.6497 99.3557 67.4149 99.6297 67.085 99.7582ZM66.4198 98.5451H65.6986V99.5682H66.4198C66.8223 99.5682 67.0403 99.3557 67.0403 99.0538C67.0403 98.7352 66.8223 98.5451 66.4198 98.5451ZM66.4701 101.374C67.0459 101.374 67.3031 101.139 67.3031 100.72C67.3031 100.362 67.0459 100.071 66.4701 100.071H65.6986V101.374H66.4701ZM73.2558 97.9469C74.3068 97.9469 75.2683 98.7743 75.2683 99.9595C75.2683 101.145 74.3068 101.972 73.2558 101.972C72.2048 101.972 71.2432 101.145 71.2432 99.9595C71.2432 98.7743 72.2048 97.9469 73.2558 97.9469ZM73.2558 101.391C73.9769 101.391 74.631 100.798 74.631 99.9595C74.631 99.1209 73.9769 98.5283 73.2558 98.5283C72.5346 98.5283 71.8805 99.1209 71.8805 99.9595C71.8805 100.798 72.5346 101.391 73.2558 101.391ZM81.6962 101.916H81.0365L80.1141 100.552H80.047H79.3482V101.916H78.7333V98.0028H80.047C80.9247 98.0028 81.4614 98.5395 81.4614 99.2942C81.4614 99.8421 81.1763 100.261 80.6843 100.446L81.6962 101.916ZM79.3482 98.5731V100.015H80.0191C80.5166 100.015 80.8464 99.7806 80.8464 99.2942C80.8464 98.8079 80.5166 98.5731 80.0191 98.5731H79.3482ZM86.3407 98.0028C87.47 98.0028 88.3197 98.8694 88.3197 99.9483C88.3197 101.05 87.47 101.916 86.3407 101.916H85.0773V98.0028H86.3407ZM86.3351 101.335C87.1905 101.335 87.6936 100.714 87.6936 99.9483C87.6936 99.2048 87.1905 98.5843 86.3351 98.5843H85.6922V101.335H86.3351ZM92.3717 101.346H94.1438V101.916H92.2599H91.7567V98.0028H92.3717H94.0935V98.5731H92.3717V99.6688H93.6966V100.228H92.3717V101.346ZM100.572 101.916H99.912L98.9896 100.552H98.9225H98.2237V101.916H97.6088V98.0028H98.9225C99.8002 98.0028 100.337 98.5395 100.337 99.2942C100.337 99.8421 100.052 100.261 99.5598 100.446L100.572 101.916ZM98.2237 98.5731V100.015H98.8946C99.3921 100.015 99.722 99.7806 99.722 99.2942C99.722 98.8079 99.3921 98.5731 98.8946 98.5731H98.2237ZM105.076 97.9358C105.719 97.9358 106.161 98.3495 106.345 98.752L105.887 99.0147C105.691 98.6849 105.44 98.4836 105.076 98.4836C104.713 98.4836 104.456 98.6961 104.456 98.9868C104.456 99.2607 104.629 99.4284 105.004 99.5682L105.278 99.6688C106.055 99.9539 106.452 100.289 106.452 100.876C106.452 101.597 105.764 102 105.099 102C104.417 102 103.869 101.592 103.701 101.038L104.182 100.792C104.322 101.15 104.624 101.441 105.099 101.441C105.49 101.441 105.814 101.234 105.814 100.882C105.814 100.507 105.563 100.356 105.116 100.189L104.847 100.088C104.26 99.87 103.847 99.5738 103.847 98.9644C103.847 98.3718 104.383 97.9358 105.076 97.9358Z" fill="black"/>
</svg>
