<svg width="25" height="20" viewBox="0 0 25 20" fill="none" xmlns="http://www.w3.org/2000/svg">
<path d="M2.27778 2.28571L10.082 8.21577L10.0846 8.21794C10.9511 8.85737 11.3847 9.17727 11.8595 9.30085C12.2792 9.41008 12.7204 9.41008 13.1401 9.30085C13.6154 9.17716 14.0502 8.85632 14.9183 8.21577C14.9183 8.21577 19.924 4.35049 22.7222 2.28571M1 14.886V5.11454C1 3.6744 1 2.9538 1.27854 2.40374C1.52355 1.91989 1.91422 1.5268 2.39507 1.28027C2.94174 1 3.65789 1 5.08914 1H19.9114C21.3426 1 22.0572 1 22.6039 1.28027C23.0848 1.5268 23.4767 1.91989 23.7217 2.40374C24 2.95326 24 3.67299 24 5.11031V14.8903C24 16.3276 24 17.0463 23.7217 17.5958C23.4767 18.0797 23.0848 18.4735 22.6039 18.72C22.0578 19 21.3435 19 19.9151 19H5.08494C3.65649 19 2.9412 19 2.39507 18.72C1.91422 18.4735 1.52355 18.0797 1.27854 17.5958C1 17.0458 1 16.3261 1 14.886Z" stroke="white" stroke-width="2" stroke-linecap="round" stroke-linejoin="round"/>
</svg>
