<svg width="100" height="287" viewBox="0 0 100 287" fill="none" xmlns="http://www.w3.org/2000/svg">
<path fill-rule="evenodd" clip-rule="evenodd" d="M29.4418 0.41793C23.8482 0.118655 17.4336 3.45184 14.8414 8.00446C10.5886 15.474 11.6462 24.4799 17.4649 30.3485C19.4606 32.3612 19.6246 32.4481 24.1196 33.8751C28.4351 35.2452 28.895 35.3129 31.3441 34.9422C34.3507 34.4866 38.4274 32.7918 39.1928 31.6788C39.4802 31.2608 40.5296 30.2388 41.5253 29.4073C43.3153 27.9121 43.3529 27.8408 44.9339 22.9291C46.0518 19.4561 46.4955 17.5073 46.4086 16.4495C46.0652 12.26 43.8817 7.29891 41.2968 4.83562C40.0365 3.63455 31.7338 0.540784 29.4418 0.41793ZM83.0804 36.0494C76.7487 36.1686 75.5175 36.7521 3.27703 73.8564C-32.2381 92.0978 -67.6315 110.184 -75.3747 114.047C-83.1179 117.91 -92.3869 122.683 -95.9722 124.654C-99.5574 126.625 -105.811 129.82 -109.87 131.754C-113.929 133.689 -118.712 136.126 -120.501 137.17C-124.71 139.628 -129.573 141.705 -132.347 142.229C-134.303 142.599 -134.837 142.529 -137.146 141.599C-140.323 140.32 -141.885 138.489 -142.718 135.07C-143.208 133.054 -143.165 132.449 -142.349 129.911C-141.518 127.324 -141.231 126.868 -139.487 125.361C-138.42 124.44 -135.762 122.557 -133.581 121.176C-131.399 119.795 -101.623 104.286 -67.4125 86.7108C-13.3847 58.9558 -4.79964 54.4185 -2.08487 52.1852C3.91795 47.2468 5.79521 44.1631 5.76112 39.2967C5.6891 29.0302 -2.27245 21.02 -11.8777 21.5501C-13.5341 21.6415 -15.7617 21.9661 -16.828 22.2714C-17.8943 22.5768 -18.9579 22.7651 -19.1914 22.6899C-19.4249 22.6148 -41.3179 33.6349 -67.8423 47.1789C-94.3667 60.7228 -122.176 74.8858 -129.642 78.6523C-137.107 82.4187 -165.669 96.9813 -193.114 111.014C-248.061 139.11 -247.697 138.946 -251.912 137.589C-255.599 136.402 -257.04 134.79 -257.919 130.872C-258.178 129.716 -258.566 128.714 -258.781 128.644C-259.046 128.559 -263.986 143.475 -274.086 174.852L-289 221.186L-262.854 229.602L-236.709 238.017L-236.04 237.181C-235.672 236.721 -235.237 236.387 -235.075 236.439C-234.912 236.491 -234.167 236.21 -233.42 235.814C-227.802 232.839 -223.105 230.447 -220.381 229.174C-218.621 228.352 -213.804 225.873 -209.677 223.666C-205.549 221.459 -201.562 219.507 -200.817 219.329C-200.072 219.151 -198.743 218.495 -197.863 217.871C-195.122 215.927 -182.312 209.363 -180.797 209.125C-180.004 209.001 -179.293 208.705 -179.216 208.467C-179.043 207.929 -168.133 202.122 -160.821 198.676C-159.647 198.123 -154.438 195.358 -149.244 192.532C-137.444 186.113 -91.811 162.536 8.55512 111.003C51.5392 88.9331 87.8856 70.1184 89.3243 69.1926C95.0601 65.5025 98.1033 61.2322 99.0836 55.4996C100.914 44.7913 93.5593 35.8518 83.0804 36.0494ZM66.5332 106.957C65.0109 107.031 62.5999 107.51 61.1751 108.023C59.7502 108.536 27.3654 124.95 -10.7912 144.498C-80.3986 180.159 -94.3959 187.234 -99.3437 189.253C-100.81 189.851 -107.085 192.863 -113.288 195.946C-119.491 199.028 -127.028 202.724 -130.037 204.158C-133.047 205.592 -135.94 207.135 -136.467 207.587C-136.994 208.039 -138.579 208.87 -139.99 209.433C-142.405 210.397 -147.52 212.971 -158.213 218.602C-160.758 219.942 -164.42 221.823 -166.349 222.781C-168.279 223.74 -170.913 225.102 -172.202 225.808C-173.493 226.515 -175.62 227.505 -176.93 228.01C-178.24 228.514 -181.057 229.958 -183.19 231.22C-185.323 232.482 -190.098 235.016 -193.802 236.852C-197.506 238.689 -201.131 240.531 -201.857 240.946C-202.583 241.362 -204.831 242.57 -206.851 243.631C-208.872 244.692 -210.583 245.741 -210.654 245.961C-210.744 246.24 -191.712 252.501 -148.113 266.535L-85.4419 286.707L-84.6255 285.813C-84.1762 285.321 -82.2557 284.282 -80.3576 283.504C-78.4596 282.726 -76.4097 281.776 -75.8018 281.393C-74.9443 280.852 -67.1137 276.842 -58.9849 272.78C-58.6547 272.615 -56.6949 271.53 -54.6297 270.369C-52.5651 269.208 -49.039 267.461 -46.794 266.485C-44.549 265.51 -42.0278 264.217 -41.1916 263.611C-39.7172 262.544 -33.0563 259.12 -28.5502 257.113C-27.3337 256.571 -25.9132 255.889 -25.3942 255.597C-24.4873 255.089 -12.6163 248.991 -10.1277 247.756C-9.46416 247.427 -6.22041 245.682 -2.9201 243.88C0.380739 242.077 6.7757 238.838 11.2913 236.68C20.6179 232.225 27.952 227.957 32.6111 224.273C37.8632 220.121 40.6508 214.997 40.7165 209.373C40.7788 204.055 37.7666 199.042 32.8099 196.213C28.5865 193.802 25.5672 193.106 20.5928 193.393C16.7969 193.613 13.8161 194.858 -0.327134 202.135C-24.8212 214.737 -29.4674 216.922 -32.691 217.356C-34.2855 217.57 -36.386 217.604 -37.3588 217.432C-40.917 216.802 -43.8174 212.887 -44.0351 208.42C-44.272 203.551 -41.6772 199.939 -35.7332 196.862C-33.8031 195.863 -24.8953 191.311 -15.9379 186.748C32.7808 161.927 75.3462 139.765 76.6292 138.551C77.4095 137.813 78.4253 136.851 78.8868 136.413C83.0968 132.416 84.8079 126.747 83.57 120.895C83.0128 118.262 80.0028 112.276 79.0879 111.982C78.7758 111.881 77.7394 111.076 76.7849 110.193C74.4324 108.014 70.4777 106.766 66.5332 106.957ZM-203.329 55.3293C-205.922 55.409 -208.276 55.7673 -209.528 56.2733C-210.639 56.7217 -217.809 60.2676 -225.461 64.1527C-233.114 68.038 -239.685 71.2338 -240.063 71.2546C-240.686 71.2887 -241.523 73.6894 -248.796 96.2828C-253.756 111.692 -256.702 121.317 -256.479 121.389C-256.282 121.452 -255.321 120.969 -254.344 120.315C-253.368 119.661 -243.926 114.644 -233.363 109.167C-192.383 87.9177 -191.786 87.5811 -188.222 83.6969C-186.517 81.8388 -186.063 81.0465 -185.215 78.4493C-184.366 75.851 -184.254 74.8568 -184.471 71.8456C-184.694 68.7417 -184.967 67.8708 -186.659 64.8422C-189.022 60.6151 -191.867 58.102 -196.285 56.342C-198.882 55.3077 -199.541 55.2129 -203.329 55.3293ZM65.175 166.898C56.3226 166.681 49.0514 172.918 48.1624 181.488C47.0265 192.439 53.8874 200.744 64.5727 201.35C70.7597 201.702 75.2189 199.065 79.9164 192.275C82.1313 189.074 82.5374 187.154 82.047 182.194C81.5827 177.495 79.5514 173.377 76.513 170.976C73.6366 168.703 68.8695 166.988 65.175 166.898Z" fill="url(#paint0_linear_176_432)"/>
<defs>
<linearGradient id="paint0_linear_176_432" x1="-432.134" y1="-197.527" x2="223.082" y2="16.8481" gradientUnits="userSpaceOnUse">
<stop offset="0.174199" stop-color="#1348F9"/>
<stop offset="0.774517" stop-color="#1E86FA"/>
</linearGradient>
</defs>
</svg>
