<svg width="108" height="287" viewBox="0 0 108 287" fill="none" xmlns="http://www.w3.org/2000/svg">
<path fill-rule="evenodd" clip-rule="evenodd" d="M70.4322 0.41793C76.0258 0.118655 82.4404 3.45184 85.0326 8.00446C89.2854 15.474 88.2279 24.4799 82.4091 30.3485C80.4134 32.3612 80.2494 32.4481 75.7544 33.8751C71.439 35.2452 70.979 35.3129 68.5299 34.9422C65.5233 34.4866 61.4466 32.7918 60.6812 31.6788C60.3938 31.2608 59.3444 30.2388 58.3488 29.4073C56.5587 27.9121 56.5211 27.8408 54.9401 22.9291C53.8222 19.4561 53.3785 17.5073 53.4654 16.4495C53.8088 12.26 55.9923 7.29891 58.5773 4.83562C59.8375 3.63455 68.1402 0.540784 70.4322 0.41793ZM16.7936 36.0494C23.1254 36.1686 24.3566 36.7521 96.597 73.8564C132.112 92.0978 167.506 110.184 175.249 114.047C182.992 117.91 192.261 122.683 195.846 124.654C199.431 126.625 205.685 129.82 209.744 131.754C213.803 133.689 218.586 136.126 220.375 137.17C224.584 139.628 229.447 141.705 232.221 142.229C234.177 142.599 234.711 142.529 237.02 141.599C240.197 140.32 241.759 138.489 242.592 135.07C243.082 133.054 243.039 132.449 242.223 129.911C241.393 127.324 241.105 126.868 239.361 125.361C238.294 124.44 235.636 122.557 233.455 121.176C231.274 119.795 201.497 104.286 167.287 86.7108C113.259 58.9558 104.674 54.4185 101.959 52.1852C95.9561 47.2468 94.0788 44.1631 94.1129 39.2967C94.1849 29.0302 102.146 21.02 111.752 21.5501C113.408 21.6415 115.636 21.9661 116.702 22.2714C117.768 22.5768 118.832 22.7651 119.065 22.6899C119.299 22.6148 141.192 33.6349 167.716 47.1789C194.241 60.7228 222.05 74.8858 229.516 78.6523C236.981 82.4187 265.543 96.9813 292.988 111.014C347.935 139.11 347.572 138.946 351.786 137.589C355.473 136.402 356.914 134.79 357.793 130.872C358.052 129.716 358.44 128.714 358.655 128.644C358.92 128.559 363.86 143.475 373.96 174.852L388.874 221.186L362.729 229.602L336.583 238.017L335.914 237.181C335.546 236.721 335.111 236.387 334.949 236.439C334.786 236.491 334.041 236.21 333.294 235.814C327.676 232.839 322.979 230.447 320.255 229.174C318.495 228.352 313.678 225.873 309.551 223.666C305.423 221.459 301.436 219.507 300.691 219.329C299.946 219.151 298.617 218.495 297.737 217.871C294.996 215.927 282.186 209.363 280.671 209.125C279.878 209.001 279.167 208.705 279.09 208.467C278.917 207.929 268.007 202.122 260.695 198.676C259.521 198.123 254.312 195.358 249.118 192.532C237.318 186.113 191.685 162.536 91.3189 111.003C48.3348 88.9331 11.9884 70.1184 10.5497 69.1926C4.81393 65.5025 1.77073 61.2322 0.790383 55.4996C-1.04031 44.7913 6.31473 35.8518 16.7936 36.0494ZM33.3408 106.957C34.8631 107.031 37.2741 107.51 38.699 108.023C40.1238 108.536 72.5086 124.95 110.665 144.498C180.273 180.159 194.27 187.234 199.218 189.253C200.684 189.851 206.959 192.863 213.162 195.946C219.365 199.028 226.902 202.724 229.911 204.158C232.921 205.592 235.814 207.135 236.341 207.587C236.868 208.039 238.453 208.87 239.864 209.433C242.279 210.397 247.394 212.971 258.087 218.602C260.632 219.942 264.294 221.823 266.223 222.781C268.153 223.74 270.787 225.102 272.076 225.808C273.367 226.515 275.494 227.505 276.804 228.01C278.114 228.514 280.931 229.958 283.064 231.22C285.197 232.482 289.972 235.016 293.677 236.852C297.38 238.689 301.005 240.531 301.731 240.946C302.458 241.362 304.705 242.57 306.725 243.631C308.746 244.692 310.457 245.741 310.528 245.961C310.618 246.24 291.586 252.501 247.987 266.535L185.316 286.707L184.5 285.813C184.05 285.321 182.13 284.282 180.232 283.504C178.334 282.726 176.284 281.776 175.676 281.393C174.818 280.852 166.988 276.842 158.859 272.78C158.529 272.615 156.569 271.53 154.504 270.369C152.439 269.208 148.913 267.461 146.668 266.485C144.423 265.51 141.902 264.217 141.066 263.611C139.591 262.544 132.93 259.12 128.424 257.113C127.208 256.571 125.787 255.889 125.268 255.597C124.361 255.089 112.49 248.991 110.002 247.756C109.338 247.427 106.094 245.682 102.794 243.88C99.4933 242.077 93.0983 238.838 88.5828 236.68C79.2562 232.225 71.922 227.957 67.2629 224.273C62.0108 220.121 59.2232 214.997 59.1575 209.373C59.0952 204.055 62.1075 199.042 67.0641 196.213C71.2876 193.802 74.3069 193.106 79.2812 193.393C83.0772 193.613 86.058 194.858 100.201 202.135C124.695 214.737 129.341 216.922 132.565 217.356C134.16 217.57 136.26 217.604 137.233 217.432C140.791 216.802 143.691 212.887 143.909 208.42C144.146 203.551 141.551 199.939 135.607 196.862C133.677 195.863 124.769 191.311 115.812 186.748C67.0932 161.927 24.5278 139.765 23.2448 138.551C22.4645 137.813 21.4487 136.851 20.9873 136.413C16.7772 132.416 15.0661 126.747 16.304 120.895C16.8613 118.262 19.8712 112.276 20.7861 111.982C21.0982 111.881 22.1346 111.076 23.0891 110.193C25.4416 108.014 29.3963 106.766 33.3408 106.957ZM303.203 55.3293C305.796 55.409 308.15 55.7673 309.402 56.2733C310.513 56.7217 317.683 60.2676 325.335 64.1527C332.988 68.038 339.559 71.2338 339.937 71.2546C340.56 71.2887 341.397 73.6894 348.67 96.2828C353.63 111.692 356.576 121.317 356.353 121.389C356.156 121.452 355.195 120.969 354.218 120.315C353.242 119.661 343.8 114.644 333.237 109.167C292.257 87.9177 291.66 87.5811 288.096 83.6969C286.391 81.8388 285.937 81.0465 285.089 78.4493C284.24 75.851 284.128 74.8568 284.345 71.8456C284.568 68.7417 284.841 67.8708 286.533 64.8422C288.896 60.6151 291.741 58.102 296.159 56.342C298.756 55.3077 299.415 55.2129 303.203 55.3293ZM34.699 166.898C43.5514 166.681 50.8226 172.918 51.7117 181.488C52.8475 192.439 45.9866 200.744 35.3013 201.35C29.1143 201.702 24.6551 199.065 19.9576 192.275C17.7427 189.074 17.3366 187.154 17.827 182.194C18.2914 177.495 20.3227 173.377 23.361 170.976C26.2374 168.703 31.0045 166.988 34.699 166.898Z" fill="url(#paint0_linear_176_431)"/>
<defs>
<linearGradient id="paint0_linear_176_431" x1="532.008" y1="-197.527" x2="-123.208" y2="16.8481" gradientUnits="userSpaceOnUse">
<stop offset="0.174199" stop-color="#1348F9"/>
<stop offset="0.774517" stop-color="#1E86FA"/>
</linearGradient>
</defs>
</svg>
