<svg width="30" height="30" viewBox="0 0 30 30" fill="none" xmlns="http://www.w3.org/2000/svg">
<path d="M8.5 1.88159H7.20032C5.38015 1.88159 4.46938 1.88159 3.77417 2.23582C3.16264 2.54741 2.66582 3.04423 2.35423 3.65576C2 4.35097 2 5.26174 2 7.08191V22.6819C2 24.5021 2 25.4117 2.35423 26.1069C2.66582 26.7184 3.16264 27.2161 3.77417 27.5277C4.4687 27.8816 5.37837 27.8816 7.19498 27.8816H8.5M8.5 1.88159H22.8003C24.6205 1.88159 25.5293 1.88159 26.2245 2.23582C26.836 2.54741 27.3345 3.04423 27.6461 3.65576C28 4.35029 28 5.25996 28 7.07657V22.6874C28 24.504 28 25.4124 27.6461 26.1069C27.3345 26.7184 26.836 27.2161 26.2245 27.5277C25.53 27.8816 24.6216 27.8816 22.805 27.8816H8.5M8.5 1.88159V27.8816M15 13.2566H21.5M15 8.38159H21.5" stroke="#ABAFB6" stroke-width="3" stroke-linecap="round" stroke-linejoin="round"/>
</svg>
