<svg width="33" height="29" viewBox="0 0 33 29" fill="none" xmlns="http://www.w3.org/2000/svg">
    <path
        d="M24.5556 27C24.5556 24.2386 20.949 22 16.5 22C12.051 22 8.44444 24.2386 8.44444 27M31 22.0006C31 19.9503 29.0117 18.1882 26.1667 17.4167M2 22.0006C2 19.9503 3.98826 18.1882 6.83333 17.4167M26.1667 10.7268C27.1555 9.81131 27.7778 8.48083 27.7778 7C27.7778 4.23858 25.6138 2 22.9444 2C21.7065 2 20.5773 2.48142 19.7222 3.27316M6.83333 10.7268C5.84451 9.81131 5.22222 8.48083 5.22222 7C5.22222 4.23858 7.38618 2 10.0556 2C11.2935 2 12.4227 2.48142 13.2778 3.27316M16.5 17C13.8306 17 11.6667 14.7614 11.6667 12C11.6667 9.23858 13.8306 7 16.5 7C19.1694 7 21.3333 9.23858 21.3333 12C21.3333 14.7614 19.1694 17 16.5 17Z"
        stroke="#ABAFB6" stroke-width="3" stroke-linecap="round" stroke-linejoin="round" />
</svg>