<svg width="119" height="102" viewBox="0 0 119 102" fill="none" xmlns="http://www.w3.org/2000/svg">
<path d="M51.1515 0.065304C50.2636 -0.188384 49.3122 0.318992 49.0586 1.2069L35.5497 49.5344C35.296 50.4224 35.8034 51.3737 36.6913 51.6274C36.8181 51.6908 37.0084 51.6908 37.1352 51.6908C37.8963 51.6908 38.5305 51.1834 38.7842 50.4858L52.3565 2.15823C52.6102 1.27032 52.1028 0.318992 51.1515 0.065304Z" fill="url(#paint0_linear_1_2)"/>
<path d="M82.7357 49.5343L69.1634 1.27016C68.9097 0.382255 67.9583 -0.125121 67.0704 0.128567C66.1825 0.382255 65.6751 1.33358 65.9288 2.22149L79.4377 50.549C79.628 51.3101 80.3256 51.7541 81.0867 51.7541C81.2135 51.7541 81.4038 51.7541 81.5306 51.6906C82.4185 51.3735 82.9893 50.4222 82.7357 49.5343Z" fill="url(#paint1_linear_1_2)"/>
<path d="M59.0796 45.1583C58.1283 45.1583 57.3672 45.9194 57.3672 46.8707V55.6864C57.3672 56.6377 58.1283 57.3988 59.0796 57.3988C60.0309 57.3988 60.792 56.6377 60.792 55.6864V46.8073C60.7286 45.9194 59.9675 45.1583 59.0796 45.1583Z" fill="url(#paint2_linear_1_2)"/>
<path d="M59.0796 26.8298C58.1283 26.8298 57.3672 27.5908 57.3672 28.5422V37.3578C57.3672 38.3092 58.1283 39.0702 59.0796 39.0702C60.0309 39.0702 60.792 38.3092 60.792 37.3578V28.5422C60.7286 27.5908 59.9675 26.8298 59.0796 26.8298Z" fill="url(#paint3_linear_1_2)"/>
<path d="M59.0796 8.56406C58.1283 8.56406 57.3672 9.32512 57.3672 10.2765V19.0921C57.3672 20.0434 58.1283 20.8045 59.0796 20.8045C60.0309 20.8045 60.792 20.0434 60.792 19.0921V10.213C60.7286 9.32512 59.9675 8.56406 59.0796 8.56406Z" fill="url(#paint4_linear_1_2)"/>
<path d="M5.6685 66.7096L5.66846 82.8485C5.66846 84.75 6.09569 86.14 6.95018 87.0186C7.80468 87.8972 9.14662 88.3364 10.9759 88.3364C12.9495 88.3364 14.3336 87.8971 15.1279 87.0186C15.9222 86.1401 16.3194 84.75 16.3194 82.8485V66.7096H21.9879V82.8485C21.9879 86.0739 21.0672 88.5892 19.2258 90.3944C17.3845 92.1997 14.6344 93.1023 10.9759 93.1023C7.24516 93.1023 4.48314 92.1997 2.68981 90.3944C0.896483 88.5892 0 86.0737 0 82.8485V66.7096H5.6685ZM32.5305 66.7096V77.3967L42.6038 66.7096H49.6803L39.6071 76.8912L50.6551 92.4885H43.5425L35.7799 80.8988L32.5305 84.1844V92.4885H26.862V66.7096H32.5305ZM60.945 66.7096C63.4242 66.7096 65.4881 67.4499 67.137 68.9301C68.7859 70.4103 69.6102 72.3059 69.6102 74.6166C69.6102 75.6757 69.4537 76.6444 69.1408 77.523C68.8279 78.4016 68.2924 79.2741 67.5342 80.1406C66.776 81.0071 65.4581 82.0542 63.5807 83.2818C60.7645 85.0389 58.839 86.6395 57.8039 88.0837H69.7546V92.4885H51.1967C51.1967 90.2982 51.7202 88.4025 52.7673 86.802C53.8143 85.2014 55.7699 83.4502 58.6343 81.5487C60.921 80.0323 62.365 78.9732 62.9669 78.3715C63.5688 77.7698 63.9718 77.2041 64.1764 76.6745C64.381 76.145 64.4833 75.5914 64.4833 75.0137C64.4833 73.8584 64.1464 72.9196 63.4724 72.1975C62.7984 71.4754 61.8717 71.1144 60.6923 71.1144C59.4166 71.1144 58.4358 71.6319 57.7498 72.6669C57.0638 73.7019 56.7088 75.122 56.6847 76.9273H51.7744V76.4579C51.7744 73.4973 52.6048 71.1324 54.2657 69.3633C55.9265 67.5942 58.153 66.7096 60.945 66.7096ZM92.284 66.7096V71.4755H78.6725V76.9995H91.1648V81.4043H78.6725V87.7227H92.5729V92.4885H73.004V66.7096H92.284ZM101.96 66.7096L101.96 82.8485C101.96 84.75 102.387 86.14 103.242 87.0186C104.096 87.8972 105.438 88.3364 107.268 88.3364C109.241 88.3364 110.625 87.8971 111.42 87.0186C112.214 86.1401 112.611 84.75 112.611 82.8485V66.7096H118.279V82.8485C118.279 86.0739 117.359 88.5892 115.517 90.3944C113.676 92.1997 110.926 93.1023 107.268 93.1023C103.537 93.1023 100.775 92.1997 98.9814 90.3944C97.1881 88.5892 96.2916 86.0737 96.2916 82.8485V66.7096H101.96Z" fill="url(#paint5_linear_1_2)"/>
<path d="M13.8293 99.7583C14.2989 99.8701 14.6623 100.273 14.6623 100.787C14.6623 101.486 14.2151 101.916 13.2423 101.916H11.8279V98.0029H13.2144C14.0026 98.0029 14.3939 98.4501 14.3939 98.9644C14.3939 99.3558 14.1592 99.6297 13.8293 99.7583ZM13.1641 98.5451H12.4429V99.5682H13.1641C13.5666 99.5682 13.7846 99.3558 13.7846 99.0539C13.7846 98.7352 13.5666 98.5451 13.1641 98.5451ZM13.2144 101.374C13.7902 101.374 14.0473 101.139 14.0473 100.72C14.0473 100.362 13.7902 100.071 13.2144 100.071H12.4429V101.374H13.2144ZM21.0343 101.916H20.3746L19.4522 100.552H19.3851H18.6863V101.916H18.0713V98.0029H19.3851C20.2628 98.0029 20.7995 98.5396 20.7995 99.2943C20.7995 99.8421 20.5144 100.261 20.0224 100.446L21.0343 101.916ZM18.6863 98.5731V100.015H19.3571C19.8547 100.015 20.1845 99.7806 20.1845 99.2943C20.1845 98.8079 19.8547 98.5731 19.3571 98.5731H18.6863ZM24.9744 98.0029V101.916H24.3594V98.0029H24.9744ZM29.7866 98.0029C30.9159 98.0029 31.7656 98.8694 31.7656 99.9483C31.7656 101.05 30.9159 101.916 29.7866 101.916H28.5232V98.0029H29.7866ZM29.781 101.335C30.6364 101.335 31.1395 100.714 31.1395 99.9483C31.1395 99.2048 30.6364 98.5843 29.781 98.5843H29.1381V101.335H29.781ZM38.8979 99.898C39.0209 101.178 38.1656 101.972 37.1313 101.972C36.058 101.972 35.1188 101.145 35.1188 99.9595C35.1188 98.7744 36.0803 97.947 37.1313 97.947C37.6345 97.947 38.0873 98.1147 38.4339 98.411L38.0594 98.8358C37.8134 98.6458 37.4947 98.5284 37.1705 98.5284C36.4102 98.5284 35.7561 99.121 35.7561 99.9595C35.7561 100.798 36.3878 101.391 37.1313 101.391C37.7519 101.391 38.2103 101.106 38.3277 100.429H37.2823V99.898H38.8979ZM42.989 98.0029V101.916H42.374V98.0029H42.989ZM49.1933 98.0029H49.8082V101.916H49.3386L47.1527 99.1266V101.916H46.5378V98.0029H47.013L49.1933 100.798V98.0029ZM57.0523 99.898C57.1753 101.178 56.3199 101.972 55.2857 101.972C54.2123 101.972 53.2731 101.145 53.2731 99.9595C53.2731 98.7744 54.2347 97.947 55.2857 97.947C55.7888 97.947 56.2417 98.1147 56.5883 98.411L56.2137 98.8358C55.9677 98.6458 55.6491 98.5284 55.3248 98.5284C54.5645 98.5284 53.9105 99.121 53.9105 99.9595C53.9105 100.798 54.5422 101.391 55.2857 101.391C55.9062 101.391 56.3647 101.106 56.482 100.429H55.4366V99.898H57.0523ZM67.0849 99.7583C67.5545 99.8701 67.9178 100.273 67.9178 100.787C67.9178 101.486 67.4706 101.916 66.4979 101.916H65.0835V98.0029H66.4699C67.2582 98.0029 67.6495 98.4501 67.6495 98.9644C67.6495 99.3558 67.4147 99.6297 67.0849 99.7583ZM66.4196 98.5451H65.6984V99.5682H66.4196C66.8221 99.5682 67.0401 99.3558 67.0401 99.0539C67.0401 98.7352 66.8221 98.5451 66.4196 98.5451ZM66.4699 101.374C67.0457 101.374 67.3029 101.139 67.3029 100.72C67.3029 100.362 67.0457 100.071 66.4699 100.071H65.6984V101.374H66.4699ZM73.2556 97.947C74.3066 97.947 75.2681 98.7744 75.2681 99.9595C75.2681 101.145 74.3066 101.972 73.2556 101.972C72.2046 101.972 71.243 101.145 71.243 99.9595C71.243 98.7744 72.2046 97.947 73.2556 97.947ZM73.2556 101.391C73.9767 101.391 74.6308 100.798 74.6308 99.9595C74.6308 99.121 73.9767 98.5284 73.2556 98.5284C72.5344 98.5284 71.8803 99.121 71.8803 99.9595C71.8803 100.798 72.5344 101.391 73.2556 101.391ZM81.696 101.916H81.0363L80.1139 100.552H80.0468H79.348V101.916H78.7331V98.0029H80.0468C80.9245 98.0029 81.4612 98.5396 81.4612 99.2943C81.4612 99.8421 81.1761 100.261 80.6841 100.446L81.696 101.916ZM79.348 98.5731V100.015H80.0189C80.5164 100.015 80.8463 99.7806 80.8463 99.2943C80.8463 98.8079 80.5164 98.5731 80.0189 98.5731H79.348ZM86.3405 98.0029C87.4698 98.0029 88.3195 98.8694 88.3195 99.9483C88.3195 101.05 87.4698 101.916 86.3405 101.916H85.0771V98.0029H86.3405ZM86.3349 101.335C87.1903 101.335 87.6934 100.714 87.6934 99.9483C87.6934 99.2048 87.1903 98.5843 86.3349 98.5843H85.692V101.335H86.3349ZM92.3715 101.346H94.1436V101.916H92.2597H91.7565V98.0029H92.3715H94.0933V98.5731H92.3715V99.6688H93.6964V100.228H92.3715V101.346ZM100.572 101.916H99.9119L98.9894 100.552H98.9223H98.2235V101.916H97.6086V98.0029H98.9223C99.8 98.0029 100.337 98.5396 100.337 99.2943C100.337 99.8421 100.052 100.261 99.5597 100.446L100.572 101.916ZM98.2235 98.5731V100.015H98.8944C99.3919 100.015 99.7218 99.7806 99.7218 99.2943C99.7218 98.8079 99.3919 98.5731 98.8944 98.5731H98.2235ZM105.076 97.9358C105.719 97.9358 106.161 98.3495 106.345 98.752L105.887 99.0147C105.691 98.6849 105.44 98.4837 105.076 98.4837C104.713 98.4837 104.456 98.6961 104.456 98.9868C104.456 99.2607 104.629 99.4284 105.004 99.5682L105.278 99.6688C106.055 99.9539 106.452 100.289 106.452 100.876C106.452 101.598 105.764 102 105.099 102C104.417 102 103.869 101.592 103.701 101.038L104.182 100.792C104.322 101.15 104.623 101.441 105.099 101.441C105.49 101.441 105.814 101.234 105.814 100.882C105.814 100.507 105.563 100.356 105.115 100.189L104.847 100.088C104.26 99.8701 103.846 99.5738 103.846 98.9644C103.846 98.3718 104.383 97.9358 105.076 97.9358Z" fill="url(#paint6_linear_1_2)"/>
<defs>
<linearGradient id="paint0_linear_1_2" x1="43.9529" y1="0" x2="43.9529" y2="51.6908" gradientUnits="userSpaceOnUse">
<stop offset="0.17" stop-color="#1348F9"/>
<stop offset="0.77" stop-color="#1E86FA"/>
</linearGradient>
<linearGradient id="paint1_linear_1_2" x1="74.3299" y1="0.0632629" x2="74.3299" y2="51.7541" gradientUnits="userSpaceOnUse">
<stop offset="0.17" stop-color="#1348F9"/>
<stop offset="0.77" stop-color="#1E86FA"/>
</linearGradient>
<linearGradient id="paint2_linear_1_2" x1="59.0796" y1="45.1583" x2="59.0796" y2="57.3988" gradientUnits="userSpaceOnUse">
<stop offset="0.17" stop-color="#1348F9"/>
<stop offset="0.77" stop-color="#1E86FA"/>
</linearGradient>
<linearGradient id="paint3_linear_1_2" x1="59.0796" y1="26.8298" x2="59.0796" y2="39.0702" gradientUnits="userSpaceOnUse">
<stop offset="0.17" stop-color="#1348F9"/>
<stop offset="0.77" stop-color="#1E86FA"/>
</linearGradient>
<linearGradient id="paint4_linear_1_2" x1="59.0796" y1="8.56406" x2="59.0796" y2="20.8045" gradientUnits="userSpaceOnUse">
<stop offset="0.17" stop-color="#1348F9"/>
<stop offset="0.77" stop-color="#1E86FA"/>
</linearGradient>
<linearGradient id="paint5_linear_1_2" x1="59.1397" y1="66.7096" x2="59.1397" y2="93.1023" gradientUnits="userSpaceOnUse">
<stop offset="0.17" stop-color="#1348F9"/>
<stop offset="0.77" stop-color="#1E86FA"/>
</linearGradient>
<linearGradient id="paint6_linear_1_2" x1="59.1397" y1="97.9358" x2="59.1397" y2="102" gradientUnits="userSpaceOnUse">
<stop offset="0.17" stop-color="#1348F9"/>
<stop offset="0.77" stop-color="#1E86FA"/>
</linearGradient>
</defs>
</svg>
