<svg width="83" height="74" viewBox="0 0 83 74" fill="none" xmlns="http://www.w3.org/2000/svg">
<rect width="83" height="74" rx="16" fill="#E9EDF2"/>
<rect x="0.5" y="0.5" width="82" height="73" rx="15.5" stroke="black" stroke-opacity="0.2"/>
<path d="M29.6141 22.1919C30.0878 22.1919 30.4722 22.5762 30.4722 23.05C30.4722 23.5237 30.0878 23.9081 29.6141 23.9081H28.2573V57.6595H55.3585V23.9081H53.9998C53.5261 23.9081 53.1418 23.5237 53.1418 23.05C53.1418 22.5762 53.5261 22.1919 53.9998 22.1919H56.1951H56.2166C56.6903 22.1919 57.0747 22.5762 57.0747 23.05V58.496V58.5193C57.0747 58.9929 56.6903 59.3774 56.2166 59.3774H27.4206H27.3991C26.9254 59.3774 26.541 58.9929 26.541 58.5193V23.0715V23.05C26.541 22.5762 26.9254 22.1919 27.3991 22.1919H29.6141Z" fill="url(#paint0_linear_17_1335)"/>
<path d="M37.3746 13.3287C37.8465 13.3287 38.229 13.7112 38.229 14.1832C38.229 14.6551 37.8465 15.0376 37.3746 15.0376H34.9076V22.192H48.7084V15.0376L46.2415 15.0359C45.7694 15.0359 45.387 14.6533 45.387 14.1814C45.387 13.7094 45.7695 13.3269 46.2415 13.3269L49.4788 13.3287L49.5665 13.3251C50.0403 13.3251 50.4246 13.7094 50.4246 14.1832V23.0286V23.05C50.4246 23.5238 50.0403 23.9081 49.5665 23.9081H34.071H34.0495C33.5758 23.9081 33.1914 23.5238 33.1914 23.05V14.1832H33.195C33.195 13.7112 33.5776 13.3287 34.0495 13.3287H37.3746Z" fill="url(#paint1_linear_17_1335)"/>
<path d="M40.6999 31.6666C40.2262 31.6666 39.8418 31.2823 39.8418 30.8085C39.8418 30.3348 40.2262 29.9504 40.6999 29.9504H51.7853C52.259 29.9504 52.6434 30.3348 52.6434 30.8085C52.6434 31.2823 52.259 31.6666 51.7853 31.6666H40.6999ZM40.6999 51.6171C40.2262 51.6171 39.8418 51.2328 39.8418 50.759C39.8418 50.2854 40.2262 49.901 40.6999 49.901H51.7853C52.259 49.901 52.6434 50.2854 52.6434 50.759C52.6434 51.2328 52.259 51.6171 51.7853 51.6171H40.6999ZM40.6999 44.9669C40.2262 44.9669 39.8418 44.5826 39.8418 44.1088C39.8418 43.6351 40.2262 43.2507 40.6999 43.2507H51.7853C52.259 43.2507 52.6434 43.6351 52.6434 44.1088C52.6434 44.5826 52.259 44.9669 51.7853 44.9669H40.6999ZM40.6999 38.3168C40.2262 38.3168 39.8418 37.9324 39.8418 37.4587C39.8418 36.9849 40.2262 36.6006 40.6999 36.6006H51.7853C52.259 36.6006 52.6434 36.9867 52.6434 37.4587C52.6434 37.9324 52.259 38.3168 51.7853 38.3168H40.6999Z" fill="url(#paint2_linear_17_1335)"/>
<path d="M32.1185 30.7675C31.8361 30.3903 31.9129 29.854 32.2901 29.5698C32.6673 29.2873 33.2036 29.3642 33.4861 29.7414L34.0492 30.4922L35.8584 28.0788C36.1408 27.7017 36.6789 27.6248 37.0561 27.9072C37.4332 28.1896 37.5101 28.7277 37.2277 29.1032L34.7428 32.4157L34.7339 32.4283C34.6856 32.4926 34.6302 32.5498 34.5623 32.5999C34.1851 32.8823 33.6488 32.8055 33.3663 32.4283L32.1185 30.7675Z" fill="url(#paint3_linear_17_1335)"/>
<path d="M32.1185 37.4176C31.8361 37.0404 31.9129 36.5041 32.2901 36.2199C32.6673 35.9374 33.2036 36.0143 33.4861 36.3915L34.0492 37.1423L35.8584 34.729C36.1408 34.3518 36.6789 34.2749 37.0561 34.5573C37.4332 34.8398 37.5101 35.3778 37.2277 35.7551L34.7428 39.0676L34.7339 39.0801C34.6856 39.1445 34.6302 39.2017 34.5623 39.2518C34.1851 39.5342 33.6488 39.4574 33.3663 39.0801L32.1185 37.4176Z" fill="url(#paint4_linear_17_1335)"/>
<path d="M32.1185 44.0676C31.8361 43.6905 31.9129 43.154 32.2901 42.87C32.6673 42.5875 33.2036 42.6644 33.4861 43.0416L34.0492 43.7924L35.8584 41.379C36.1408 41.0019 36.6789 40.925 37.0561 41.2073C37.4332 41.4897 37.5101 42.0279 37.2277 42.405L34.7428 45.7176L34.7339 45.7301C34.6856 45.7945 34.6302 45.8517 34.5623 45.9017C34.1851 46.1841 33.6488 46.1073 33.3663 45.7301L32.1185 44.0676Z" fill="url(#paint5_linear_17_1335)"/>
<path d="M32.1185 50.718C31.8361 50.3409 31.9129 49.8045 32.2901 49.5204C32.6673 49.238 33.2036 49.3148 33.4861 49.692L34.0492 50.4428L35.8584 48.0294C36.1408 47.6523 36.6789 47.5753 37.0561 47.8577C37.4332 48.1402 37.5101 48.6782 37.2277 49.0554L34.7428 52.3679L34.7339 52.3805C34.6856 52.4449 34.6302 52.5021 34.5623 52.5521C34.1851 52.8346 33.6488 52.7577 33.3663 52.3805L32.1185 50.718Z" fill="url(#paint6_linear_17_1335)"/>
<path d="M29.6166 16.6501C30.0903 16.6501 30.4747 17.0345 30.4747 17.5082C30.4747 17.982 30.0903 18.3663 29.6166 18.3663H24.0748C23.7047 18.3663 23.3633 18.52 23.1165 18.7668C22.8698 19.0135 22.7161 19.3549 22.7161 19.725V61.8427C22.7161 62.2164 22.868 62.5577 23.113 62.8008L23.1165 62.8044C23.3597 63.0493 23.7012 63.2013 24.0748 63.2013H59.5423C59.9177 63.2013 60.2574 63.0494 60.5005 62.8044L60.5041 62.8008C60.749 62.5576 60.901 62.2162 60.901 61.8427V19.725C60.901 19.3514 60.7491 19.0099 60.5041 18.7668L60.5024 18.765L60.5006 18.7668C60.2539 18.52 59.9143 18.3663 59.5425 18.3663H54.0006C53.5269 18.3663 53.1426 17.982 53.1426 17.5082C53.1426 17.0345 53.5269 16.6501 54.0006 16.6501H59.5425C60.388 16.6501 61.1586 16.9969 61.7145 17.553L61.7127 17.5548C62.2704 18.1125 62.6173 18.883 62.6173 19.725V61.8427C62.6173 62.6847 62.2722 63.4534 61.7145 64.011L61.7109 64.0147C61.1531 64.5725 60.3844 64.9175 59.5425 64.9175H24.0749C23.2329 64.9175 22.4642 64.5725 21.9065 64.0147L21.9029 64.011C21.345 63.4533 21 62.6846 21 61.8427V19.725C21 18.8794 21.3468 18.1089 21.9028 17.553C22.4589 16.997 23.2293 16.6501 24.0748 16.6501H29.6166Z" fill="url(#paint7_linear_17_1335)"/>
<path d="M41.8087 10C42.5006 10 43.1316 10.2842 43.5874 10.7383L43.591 10.7419C44.045 11.1977 44.3293 11.827 44.3293 12.5206C44.3293 13.2125 44.0449 13.8435 43.591 14.2993L43.5893 14.3011L43.591 14.3029C43.1369 14.7588 42.506 15.0412 41.8087 15.0412C41.1115 15.0412 40.4805 14.757 40.0264 14.3029C39.5705 13.8488 39.2881 13.216 39.2881 12.5206C39.2881 11.827 39.5723 11.1977 40.0282 10.7401L40.0264 10.7383C40.4822 10.2842 41.1133 10 41.8087 10ZM42.3807 11.9521L42.3771 11.9485C42.2323 11.8055 42.0321 11.7161 41.8087 11.7161C41.587 11.7161 41.385 11.8073 41.2402 11.9521L41.2384 11.9503L41.2366 11.9521C41.0954 12.0933 41.0042 12.2971 41.0042 12.5187C41.0042 12.7403 41.0954 12.9424 41.2402 13.0872C41.3849 13.232 41.5869 13.3232 41.8086 13.3232C42.0303 13.3232 42.2323 13.232 42.3771 13.0872L42.3789 13.089C42.5218 12.9442 42.6113 12.7422 42.6113 12.5187C42.6131 12.299 42.5237 12.0969 42.3807 11.9521Z" fill="url(#paint8_linear_17_1335)"/>
<defs>
<linearGradient id="paint0_linear_17_1335" x1="2.99155" y1="16.5515" x2="64.3609" y2="16.7685" gradientUnits="userSpaceOnUse">
<stop offset="0.174199" stop-color="#1348F9"/>
<stop offset="0.774517" stop-color="#1E86FA"/>
</linearGradient>
<linearGradient id="paint1_linear_17_1335" x1="19.9001" y1="11.7198" x2="54.5357" y2="11.9628" gradientUnits="userSpaceOnUse">
<stop offset="0.174199" stop-color="#1348F9"/>
<stop offset="0.774517" stop-color="#1E86FA"/>
</linearGradient>
<linearGradient id="paint2_linear_17_1335" x1="29.9684" y1="26.664" x2="55.6984" y2="26.7294" gradientUnits="userSpaceOnUse">
<stop offset="0.174199" stop-color="#1348F9"/>
<stop offset="0.774517" stop-color="#1E86FA"/>
</linearGradient>
<linearGradient id="paint3_linear_17_1335" x1="27.7451" y1="26.9735" x2="38.6984" y2="27.0246" gradientUnits="userSpaceOnUse">
<stop offset="0.174199" stop-color="#1348F9"/>
<stop offset="0.774517" stop-color="#1E86FA"/>
</linearGradient>
<linearGradient id="paint4_linear_17_1335" x1="27.7451" y1="33.6234" x2="38.6984" y2="33.6744" gradientUnits="userSpaceOnUse">
<stop offset="0.174199" stop-color="#1348F9"/>
<stop offset="0.774517" stop-color="#1E86FA"/>
</linearGradient>
<linearGradient id="paint5_linear_17_1335" x1="27.7451" y1="40.2734" x2="38.6984" y2="40.3245" gradientUnits="userSpaceOnUse">
<stop offset="0.174199" stop-color="#1348F9"/>
<stop offset="0.774517" stop-color="#1E86FA"/>
</linearGradient>
<linearGradient id="paint6_linear_17_1335" x1="27.7451" y1="46.9238" x2="38.6984" y2="46.9749" gradientUnits="userSpaceOnUse">
<stop offset="0.174199" stop-color="#1348F9"/>
<stop offset="0.774517" stop-color="#1E86FA"/>
</linearGradient>
<linearGradient id="paint7_linear_17_1335" x1="-11.0979" y1="9.32879" x2="72.5483" y2="9.63947" gradientUnits="userSpaceOnUse">
<stop offset="0.174199" stop-color="#1348F9"/>
<stop offset="0.774517" stop-color="#1E86FA"/>
</linearGradient>
<linearGradient id="paint8_linear_17_1335" x1="35.4" y1="9.23534" x2="45.5322" y2="9.27898" gradientUnits="userSpaceOnUse">
<stop offset="0.174199" stop-color="#1348F9"/>
<stop offset="0.774517" stop-color="#1E86FA"/>
</linearGradient>
</defs>
</svg>
