<svg width="96" height="268" viewBox="0 0 96 268" fill="none" xmlns="http://www.w3.org/2000/svg">
<path fill-rule="evenodd" clip-rule="evenodd" d="M95.2047 178.298C93.9155 174.129 89.7501 170.339 85.7237 169.671C79.1177 168.577 72.8203 171.777 70.0994 177.612C69.1663 179.613 69.147 179.757 69.3156 183.427C69.4775 186.951 69.552 187.305 70.4832 188.995C71.6267 191.07 73.9644 193.593 74.9842 193.852C75.3672 193.949 76.3971 194.441 77.2732 194.945C78.8487 195.85 78.9109 195.858 82.9271 195.69C85.7669 195.571 87.3109 195.37 88.0607 195.021C91.0303 193.641 94.0678 190.707 95.1714 188.154C95.7096 186.909 95.7327 180.006 95.2047 178.298ZM83.6204 227.108C81.8264 222.513 81.0681 221.77 34.4743 178.971C11.5676 157.929 -11.1925 136.935 -16.1034 132.317C-21.0146 127.699 -27.0021 122.211 -29.4091 120.121C-31.8161 118.032 -35.8373 114.322 -38.3451 111.877C-40.853 109.432 -43.924 106.593 -45.1697 105.567C-48.1004 103.153 -50.9296 100.158 -52.0604 98.2723C-52.8581 96.9422 -52.9509 96.5332 -52.8935 94.5944C-52.8148 91.9277 -51.8982 90.2925 -49.6231 88.7622C-48.2821 87.8603 -47.8284 87.7287 -45.7533 87.6407C-43.6386 87.5508 -43.2273 87.6379 -41.6561 88.5068C-40.6955 89.0381 -38.6027 90.473 -37.0052 91.6951C-35.4077 92.9173 -16.045 110.5 6.02305 130.768C40.8738 162.776 46.5044 167.827 48.8687 169.21C54.0963 172.266 56.8563 172.807 60.4041 171.47C67.8885 168.65 71.5972 160.671 68.6204 153.794C68.1071 152.608 67.2693 151.067 66.7587 150.37C66.2481 149.673 65.8237 148.946 65.8157 148.755C65.8077 148.564 51.8513 135.533 34.8017 119.797C17.7521 104.061 -0.0965073 87.5525 -4.86186 83.1113C-9.62721 78.6701 -27.9707 61.7192 -45.6259 45.4426C-80.9736 12.8544 -80.7553 13.0758 -80.8999 9.6297C-81.0264 6.61503 -80.2366 5.12676 -77.6093 3.42857C-76.8344 2.92758 -76.2064 2.37369 -76.2137 2.19804C-76.2228 1.98153 -88.4568 2.3913 -114.114 3.46762L-152 5.05698L-151.103 26.4355L-150.206 47.814L-149.414 48.0777C-148.979 48.2228 -148.617 48.4502 -148.612 48.5831C-148.606 48.716 -148.2 49.1846 -147.709 49.6241C-144.02 52.9287 -141.006 55.7169 -139.341 57.3645C-138.266 58.4291 -135.155 61.2818 -132.429 63.7039C-129.703 66.126 -127.202 68.5139 -126.871 69.0103C-126.54 69.5065 -125.702 70.3011 -125.009 70.7761C-122.849 72.256 -114.598 79.8491 -114.016 80.8929C-113.712 81.4386 -113.304 81.8787 -113.109 81.8705C-112.669 81.8521 -105.483 88.2613 -100.993 92.6765C-100.273 93.3851 -96.8482 96.4477 -93.3826 99.4823C-85.5096 106.376 -55.9756 133.375 8.74582 192.842C36.4644 218.31 60.0143 239.804 61.0787 240.606C65.3221 243.804 69.2637 244.877 73.718 244.048C82.0383 242.5 86.5897 234.714 83.6204 227.108ZM27.3324 234.128C26.8683 233.035 25.8677 231.403 25.1088 230.499C24.35 229.596 3.62304 210.35 -20.9511 187.731C-65.7802 146.467 -74.7243 138.143 -77.534 135.071C-78.3668 134.16 -82.2595 130.386 -86.1849 126.683C-90.1099 122.98 -94.843 118.467 -96.7024 116.654C-98.562 114.842 -100.47 113.143 -100.942 112.879C-101.415 112.616 -102.449 111.681 -103.241 110.802C-104.597 109.297 -107.857 106.252 -114.855 99.9543C-116.521 98.4552 -118.882 96.286 -120.103 95.1339C-121.324 93.9819 -123.029 92.4239 -123.893 91.6717C-124.758 90.9191 -126.055 89.6312 -126.777 88.8095C-127.498 87.9878 -129.314 86.3182 -130.811 85.0996C-132.308 83.8807 -135.448 81.0734 -137.788 78.8611C-140.129 76.6491 -142.453 74.4963 -142.952 74.0772C-143.451 73.6584 -144.94 72.3417 -146.26 71.1507C-147.58 69.9597 -148.808 68.9918 -148.989 68.9993C-149.217 69.0089 -148.663 84.6075 -147.167 120.258L-145.017 171.503L-144.143 171.858C-143.663 172.054 -142.386 173.178 -141.305 174.355C-140.225 175.533 -138.978 176.775 -138.534 177.116C-137.908 177.597 -132.866 182.24 -127.706 187.086C-127.496 187.283 -126.175 188.423 -124.769 189.619C-123.365 190.816 -121.136 192.922 -119.819 194.3C-118.5 195.678 -116.875 197.172 -116.208 197.62C-115.03 198.41 -110.732 202.355 -108.05 205.108C-107.326 205.851 -106.444 206.705 -106.092 207.006C-105.475 207.532 -97.8184 214.565 -96.2448 216.051C-95.8253 216.447 -93.6758 218.348 -91.4686 220.274C-89.2612 222.201 -85.1696 226.002 -82.3757 228.721C-76.6052 234.337 -71.5085 238.547 -67.5601 240.959C-63.1094 243.679 -58.6125 244.335 -54.4842 242.867C-50.5806 241.479 -47.7284 237.926 -46.9969 233.54C-46.3733 229.803 -46.6781 227.409 -48.229 223.85C-49.4127 221.135 -51.1265 219.292 -60.2577 210.916C-76.0718 196.41 -78.9213 193.603 -80.1073 191.364C-80.6938 190.256 -81.2851 188.73 -81.4215 187.973C-81.9201 185.202 -79.8402 182.027 -76.6337 180.663C-73.1394 179.178 -69.7995 180.101 -65.948 183.616C-64.6975 184.757 -58.9696 190.041 -53.2192 195.358C-21.9447 224.276 5.72846 249.414 6.9617 250.024C7.71135 250.396 8.6884 250.879 9.13304 251.098C13.1893 253.098 17.7942 252.82 21.7375 250.338C23.5118 249.221 27.0755 245.407 27.0442 244.659C27.0334 244.404 27.3427 243.429 27.7311 242.494C28.6889 240.187 28.5351 236.96 27.3324 234.128ZM-7.67868 22.9649C-8.43573 21.0915 -9.33228 19.4674 -10.0397 18.6885C-10.6668 17.9976 -15.1914 13.7129 -20.0939 9.16686C-24.9967 4.62052 -29.1038 0.679292 -29.2211 0.408247C-29.4138 -0.0374635 -31.3943 -0.00250848 -49.8685 0.772497C-62.468 1.30105 -70.2978 1.74266 -70.2902 1.92423C-70.2834 2.08583 -69.6712 2.65802 -68.9299 3.19542C-68.1886 3.7325 -61.9764 9.2812 -55.1253 15.5257C-28.5471 39.7506 -28.1403 40.0958 -24.3406 41.6537C-22.5229 42.3991 -21.8213 42.5175 -19.6943 42.4374C-17.5663 42.3575 -16.8095 42.1713 -14.667 41.2011C-12.4586 40.2008 -11.8955 39.7669 -10.1381 37.7136C-7.68531 34.8473 -6.61554 32.0899 -6.52009 28.3862C-6.46394 26.2099 -6.57237 25.7025 -7.67868 22.9649ZM-16.8454 249.294C-19.0734 242.765 -25.5917 239.132 -32.0955 240.792C-40.4062 242.914 -44.6266 250.167 -42.1895 258.141C-40.7785 262.758 -37.6488 265.306 -31.42 266.909C-28.483 267.665 -26.9703 267.445 -23.4776 265.749C-20.168 264.143 -17.7057 261.548 -16.7699 258.68C-15.8836 255.965 -15.9155 252.018 -16.8454 249.294Z" fill="url(#paint0_linear_58_555)"/>
<defs>
<linearGradient id="paint0_linear_58_555" x1="115.459" y1="-212.434" x2="135.395" y2="324.261" gradientUnits="userSpaceOnUse">
<stop offset="0.174199" stop-color="#1348F9"/>
<stop offset="0.774517" stop-color="#1E86FA"/>
</linearGradient>
</defs>
</svg>
