<svg width="34" height="32" viewBox="0 0 34 32" fill="none" xmlns="http://www.w3.org/2000/svg">
<path d="M20.3333 25.8824H32M2 25.8824H5.33333M5.33333 25.8824C5.33333 28.1565 7.19881 30 9.5 30C11.8012 30 13.6667 28.1565 13.6667 25.8824C13.6667 23.6082 11.8012 21.7647 9.5 21.7647C7.19881 21.7647 5.33333 23.6082 5.33333 25.8824ZM30.3333 16H32M2 16H13.6667M18.6667 6.11765H32M18.6667 6.11765C18.6667 3.84353 16.8012 2 14.5 2C12.1988 2 10.3333 3.84353 10.3333 6.11765C10.3333 8.39176 12.1988 10.2353 14.5 10.2353C16.8012 10.2353 18.6667 8.39176 18.6667 6.11765ZM2 6.11765H3.66667M24.5 20.1176C22.1988 20.1176 20.3333 18.2741 20.3333 16C20.3333 13.7259 22.1988 11.8824 24.5 11.8824C26.8012 11.8824 28.6667 13.7259 28.6667 16C28.6667 18.2741 26.8012 20.1176 24.5 20.1176Z" stroke="#2F2E40" stroke-opacity="0.8" stroke-width="2.5" stroke-linecap="round" stroke-linejoin="round"/>
</svg>
