<svg width="21" height="20" viewBox="0 0 21 20" fill="none" xmlns="http://www.w3.org/2000/svg">
<path d="M10.7524 5.14146L1 14.3805V19L5.87622 19L15.6286 9.76096M10.7524 5.14146L14.2495 1.82851L14.2516 1.82655C14.7329 1.3705 14.9741 1.14208 15.252 1.05652C15.4968 0.981159 15.7606 0.981159 16.0054 1.05652C16.2832 1.14202 16.524 1.37018 17.0047 1.82558L19.1257 3.83483C19.6084 4.29218 19.8499 4.52097 19.9403 4.78466C20.0199 5.01661 20.0199 5.26646 19.9403 5.49841C19.8499 5.76191 19.6088 5.99035 19.1267 6.44704L19.1257 6.44803L15.6286 9.76096M10.7524 5.14146L15.6286 9.76096" stroke="#2F2E40" stroke-opacity="0.8" stroke-width="2" stroke-linecap="round" stroke-linejoin="round"/>
</svg>
