<svg width="881" height="804" viewBox="0 0 881 804" fill="none" xmlns="http://www.w3.org/2000/svg">
<path fill-rule="evenodd" clip-rule="evenodd" d="M280.335 1.2635C294.457 4.99067 307.715 18.3926 310.512 31.7674C315.099 53.7114 305.28 75.2259 286.15 85.1462C279.589 88.5484 279.112 88.6331 266.816 88.584C255.011 88.5369 253.815 88.3374 248.033 85.4597C240.935 81.9259 232.17 74.46 231.16 71.085C230.781 69.8175 228.992 66.4414 227.185 63.5815C223.937 58.4385 223.901 58.2316 223.901 44.7733C223.901 35.2573 224.356 30.0642 225.417 27.5073C229.616 17.3801 238.999 6.80775 247.383 2.7577C251.47 0.782837 274.548 -0.263104 280.335 1.2635ZM118.742 46.8631C134.362 52.2192 136.951 54.6518 286.605 204.506C360.179 278.178 433.575 351.366 449.706 367.145C465.838 382.925 485.03 402.183 492.354 409.942C499.678 417.7 512.647 430.631 521.175 438.677C529.703 446.722 539.629 456.597 543.234 460.62C551.716 470.084 562.128 479.128 568.593 482.646C573.153 485.128 574.533 485.381 581.009 484.917C589.915 484.279 595.254 480.984 600.052 473.159C602.88 468.546 603.256 467.01 603.259 460.057C603.264 452.97 602.915 451.606 599.789 446.473C597.877 443.334 592.786 436.535 588.475 431.362C584.164 426.19 522.652 363.888 451.783 292.913C339.862 180.826 322.18 162.7 317.226 154.985C306.273 137.927 304.077 128.771 308.049 116.716C316.43 91.284 342.589 77.7588 366.005 86.7512C370.043 88.3018 375.313 90.888 377.715 92.4982C380.118 94.1084 382.607 95.426 383.247 95.426C383.886 95.426 429.419 140.283 484.431 195.107C539.443 249.931 597.15 307.319 612.669 322.636C628.189 337.953 687.444 396.935 744.349 453.709C858.28 567.376 857.509 566.677 869.053 566.677C879.151 566.677 884.017 563.827 889.327 554.8C890.894 552.138 892.658 549.959 893.246 549.959C893.971 549.959 894.317 590.94 894.317 676.915V803.87H822.704H751.09L750.097 801.258C749.55 799.821 748.739 798.645 748.294 798.645C747.849 798.644 746.225 797.351 744.686 795.771C733.119 783.894 723.372 774.202 717.629 768.866C713.918 765.418 703.943 755.414 695.461 746.636C686.979 737.857 678.644 729.825 676.937 728.788C675.232 727.75 672.457 725.059 670.771 722.806C665.52 715.788 638.972 689.255 635.4 687.455C633.532 686.513 632.003 685.209 632.003 684.556C632.003 683.083 609.563 659.945 594.169 645.546C591.699 643.235 580.977 632.208 570.344 621.042C546.186 595.673 451.763 500.669 243.829 292.516C154.777 203.369 79.5988 127.609 76.7676 124.161C65.4798 110.415 61.3381 97.381 63.4847 82.3647C67.4957 54.3153 92.8922 37.9981 118.742 46.8631ZM103.164 236.136C106.884 237.535 112.484 240.653 115.611 243.065C118.738 245.476 186.002 312.109 265.087 391.137C409.359 535.303 438.448 564.054 449.115 573.021C452.276 575.679 465.444 588.171 478.377 600.782C491.31 613.392 507.064 628.591 513.387 634.556C519.71 640.523 525.658 646.666 526.605 648.209C527.553 649.752 530.823 653.081 533.874 655.606C539.098 659.931 549.737 670.408 571.778 692.934C577.024 698.297 584.609 705.892 588.633 709.813C592.656 713.735 598.105 719.222 600.742 722.006C603.38 724.792 607.868 728.951 610.717 731.25C613.566 733.548 619.404 739.386 623.689 744.223C627.974 749.06 637.802 759.169 645.529 766.689C653.254 774.208 660.778 781.679 662.25 783.29C663.72 784.901 668.332 789.696 672.5 793.946C676.668 798.194 680.077 802.166 680.077 802.771C680.077 803.536 627.839 803.87 508.417 803.87H336.757L335.445 800.997C334.723 799.416 330.786 795.302 326.697 791.854C322.607 788.406 318.279 784.409 317.076 782.972C315.38 780.944 299.148 764.729 282.218 748.149C281.531 747.475 277.533 743.215 273.335 738.682C269.138 734.15 261.783 726.993 256.99 722.778C252.197 718.561 246.973 713.336 245.381 711.165C242.574 707.337 228.778 693.512 219.198 684.927C216.611 682.609 213.631 679.781 212.575 678.643C210.731 676.655 186.139 652.029 180.949 646.974C179.566 645.626 172.908 638.703 166.157 631.59C159.405 624.476 146.121 611.323 136.637 602.359C117.048 583.844 102.255 567.386 93.6341 554.517C83.916 540.01 81.0911 525.06 85.4208 511.045C89.5144 497.792 100.996 487.753 115.558 484.69C127.966 482.08 136.016 482.763 148.133 487.452C157.379 491.031 163.782 496.505 193.071 525.874C243.796 576.738 253.582 585.875 261.236 589.528C265.022 591.335 270.208 593.099 272.76 593.449C282.095 594.728 292.421 587.325 296.531 576.407C301.008 564.51 297.453 553.468 285.159 541.077C281.167 537.054 262.694 518.636 244.108 500.146C143.02 399.589 55.0812 310.548 52.8668 306.508C51.5197 304.052 49.7671 300.852 48.9717 299.395C41.7158 286.107 41.9979 270.665 49.7451 257.126C53.2315 251.034 65.4839 238.578 67.9901 238.578C68.8449 238.578 72.0606 237.406 75.1352 235.976C82.7141 232.448 93.5265 232.51 103.164 236.136ZM814.189 323.618C820.56 325.888 826.117 328.659 828.82 330.916C831.219 332.917 846.181 347.45 862.071 363.212C877.961 378.974 891.716 392.16 892.639 392.514C894.156 393.096 894.317 399.726 894.317 461.632C894.317 503.853 893.939 530.106 893.331 530.106C892.789 530.106 890.79 528.138 888.889 525.734C886.989 523.33 867.563 503.328 845.721 481.287C760.987 395.78 759.775 394.468 754.033 381.976C751.285 376 750.791 373.67 750.76 366.544C750.729 359.415 751.245 356.857 754.189 349.554C757.224 342.026 758.596 340.082 765.216 333.915C774.457 325.308 783.527 321.342 795.898 320.503C803.168 320.01 804.88 320.302 814.189 323.618ZM58.6491 386.042C80.7932 392.579 93.8577 413.873 89.2176 435.862C83.2878 463.959 59.6252 479.095 32.6204 472.061C16.984 467.989 8.02356 457.878 1.78864 437.267C-1.15118 427.549 -0.625488 422.458 4.55389 410.536C9.46051 399.24 17.7919 390.639 27.2509 387.107C36.2061 383.761 49.4075 383.314 58.6491 386.042Z" fill="url(#paint0_linear_9_871)"/>
<defs>
<linearGradient id="paint0_linear_9_871" x1="1584.07" y1="-121.319" x2="-213.393" y2="-112.699" gradientUnits="userSpaceOnUse">
<stop offset="0.174199" stop-color="#1348F9"/>
<stop offset="0.774517" stop-color="#1E86FA"/>
</linearGradient>
</defs>
</svg>
