<svg width="22" height="22" viewBox="0 0 22 22" fill="none" xmlns="http://www.w3.org/2000/svg">
<path fill-rule="evenodd" clip-rule="evenodd" d="M11.1426 0.87207C5.24321 0.87207 0.49707 5.61821 0.49707 11.5176C0.49707 16.2194 3.55766 20.2115 7.77152 21.6309C8.3038 21.7196 8.48123 21.4091 8.48123 21.0986C8.48123 20.8325 8.48123 20.1671 8.48123 19.28C5.50935 19.9453 4.88836 17.8606 4.88836 17.8606C4.40044 16.6186 3.69073 16.3081 3.69073 16.3081C2.71489 15.6428 3.77945 15.6428 3.77945 15.6428C4.844 15.7315 5.42063 16.7517 5.42063 16.7517C6.35212 18.3929 7.90459 17.9049 8.52558 17.6388C8.6143 16.9291 8.88044 16.4855 9.19093 16.2194C6.84004 15.9533 4.35608 15.0218 4.35608 10.941C4.35608 9.78771 4.75529 8.81187 5.46499 8.10217C5.37628 7.83603 4.97707 6.77148 5.5537 5.26336C5.5537 5.26336 6.44083 4.99722 8.48123 6.37227C9.324 6.15049 10.2555 6.01742 11.1426 6.01742C12.0297 6.01742 12.9612 6.15049 13.804 6.37227C15.8444 4.99722 16.7315 5.26336 16.7315 5.26336C17.3082 6.72712 16.9533 7.79167 16.8202 8.10217C17.4856 8.85623 17.9291 9.78771 17.9291 10.941C17.9291 15.0218 15.4452 15.9089 13.0499 16.175C13.4491 16.4855 13.7596 17.1509 13.7596 18.1267C13.7596 19.5461 13.7596 20.6994 13.7596 21.0542C13.7596 21.3204 13.9371 21.6752 14.5137 21.5865C18.7276 20.2115 21.7882 16.2194 21.7882 11.5176C21.7882 5.61821 17.042 0.87207 11.1426 0.87207Z" fill="white"/>
</svg>
