<svg width="28" height="28" viewBox="0 0 28 28" fill="none" xmlns="http://www.w3.org/2000/svg">
<path d="M27.44 14.3182C27.44 13.3255 27.3509 12.371 27.1855 11.4546H14V16.87H21.5345C21.21 18.62 20.2236 20.1028 18.7409 21.0955V24.6082H23.2655C25.9127 22.171 27.44 18.5819 27.44 14.3182Z" fill="#4285F4"/>
<path d="M14.0002 27.9997C17.7802 27.9997 20.9493 26.746 23.2656 24.6078L18.7411 21.0951C17.4874 21.9351 15.8838 22.4315 14.0002 22.4315C10.3538 22.4315 7.26744 19.9688 6.16653 16.6597H1.48926V20.2869C3.79289 24.8624 8.52744 27.9997 14.0002 27.9997Z" fill="#34A853"/>
<path d="M6.16636 16.6602C5.88636 15.8202 5.72727 14.9229 5.72727 14.0002C5.72727 13.0774 5.88636 12.1802 6.16636 11.3402V7.71289H1.48909C0.509091 9.6638 -0.000863706 11.8169 1.09809e-06 14.0002C1.09809e-06 16.2593 0.54091 18.3974 1.48909 20.2874L6.16636 16.6602Z" fill="#FBBC05"/>
<path d="M14.0002 5.56818C16.0556 5.56818 17.9011 6.27455 19.352 7.66182L23.3674 3.64636C20.9429 1.38727 17.7738 0 14.0002 0C8.52744 0 3.79289 3.13727 1.48926 7.71273L6.16653 11.34C7.26744 8.03091 10.3538 5.56818 14.0002 5.56818Z" fill="#EA4335"/>
</svg>
