<svg width="21" height="26" viewBox="0 0 21 26" fill="none" xmlns="http://www.w3.org/2000/svg">
<path d="M2 10.5823C2 16.5971 7.15404 21.5711 9.43534 23.4781C9.76184 23.751 9.92704 23.8891 10.1706 23.9591C10.3603 24.0136 10.6394 24.0136 10.8291 23.9591C11.0732 23.889 11.2372 23.7522 11.5649 23.4783C13.8462 21.5713 19 16.5976 19 10.5828C19 8.30658 18.1045 6.12331 16.5104 4.51377C14.9164 2.90423 12.7545 2 10.5001 2C8.24579 2 6.08367 2.90437 4.48961 4.5139C2.89554 6.12344 2 8.30603 2 10.5823Z" stroke="url(#paint0_linear_87_62)" stroke-width="3" stroke-linecap="round" stroke-linejoin="round"/>
<path d="M8.07146 9.4382C8.07146 10.8075 9.15878 11.9176 10.5 11.9176C11.8413 11.9176 12.9286 10.8075 12.9286 9.4382C12.9286 8.06887 11.8413 6.9588 10.5 6.9588C9.15878 6.9588 8.07146 8.06887 8.07146 9.4382Z" stroke="url(#paint1_linear_87_62)" stroke-width="3" stroke-linecap="round" stroke-linejoin="round"/>
<defs>
<linearGradient id="paint0_linear_87_62" x1="-11.1115" y1="-1.33704" x2="23.0568" y2="-1.2233" gradientUnits="userSpaceOnUse">
<stop offset="0.174199" stop-color="#1348F9"/>
<stop offset="0.774517" stop-color="#1E86FA"/>
</linearGradient>
<linearGradient id="paint1_linear_87_62" x1="-11.1115" y1="-1.33704" x2="23.0568" y2="-1.2233" gradientUnits="userSpaceOnUse">
<stop offset="0.174199" stop-color="#1348F9"/>
<stop offset="0.774517" stop-color="#1E86FA"/>
</linearGradient>
</defs>
</svg>
