<svg width="30" height="25" viewBox="0 0 30 25" fill="none" xmlns="http://www.w3.org/2000/svg">
<path d="M3.44444 3.38159L12.2666 10.3L12.2695 10.3025C13.2491 11.0485 13.7392 11.4217 14.276 11.5659C14.7504 11.6934 15.2492 11.6934 15.7236 11.5659C16.2609 11.4216 16.7524 11.0473 17.7337 10.3C17.7337 10.3 23.3923 5.7905 26.5556 3.38159M2 18.0819V6.68188C2 5.00173 2 4.16102 2.31487 3.51929C2.59184 2.9548 3.03346 2.49619 3.57704 2.20857C4.19501 1.88159 5.00457 1.88159 6.6225 1.88159H23.3781C24.996 1.88159 25.8038 1.88159 26.4218 2.20857C26.9654 2.49619 27.4085 2.9548 27.6854 3.51929C28 4.16039 28 5.00008 28 6.67696V18.087C28 19.7638 28 20.6023 27.6854 21.2434C27.4085 21.8079 26.9654 22.2673 26.4218 22.5549C25.8044 22.8816 24.997 22.8816 23.3822 22.8816H6.61776C5.00299 22.8816 4.1944 22.8816 3.57704 22.5549C3.03346 22.2673 2.59184 21.8079 2.31487 21.2434C2 20.6017 2 19.762 2 18.0819Z" stroke="#ABAFB6" stroke-width="3" stroke-linecap="round" stroke-linejoin="round"/>
</svg>
