<svg width="36" height="36" viewBox="0 0 36 36" fill="none" xmlns="http://www.w3.org/2000/svg">
<path d="M7.56002 11.52C3.40525 11.52 0 14.9148 0 19.0584C0 20.664 0.512641 22.1562 1.3806 23.3828L6.63769 32.4706C7.37389 33.4325 7.8635 33.25 8.47586 32.4202L14.274 22.5526C14.391 22.3402 14.4828 22.1148 14.5631 21.8844C14.9311 20.9877 15.1202 20.0277 15.12 19.0584C15.12 14.9148 11.7159 11.52 7.56002 11.52ZM7.56002 15.0523C9.79778 15.0523 11.5776 16.8275 11.5776 19.0588C11.5776 21.2901 9.79778 23.0645 7.56002 23.0645C5.32261 23.0645 3.54241 21.2897 3.54241 19.0588C3.54241 16.8275 5.32261 15.0523 7.56002 15.0523Z" fill="#ABAFB6"/>
<path d="M31.5896 0C29.166 0 27.1796 1.98036 27.1796 4.39777C27.1796 5.33413 27.4784 6.20461 27.9849 6.91993L31.0517 12.2213C31.4812 12.7822 31.7667 12.6756 32.1238 12.1918L35.506 6.43537C35.5744 6.31189 35.6281 6.18049 35.6745 6.04585C35.8892 5.52292 35.9996 4.96306 35.9996 4.39777C35.9996 1.98 34.0138 0 31.5896 0ZM31.5896 2.06064C32.8949 2.06064 33.9332 3.09601 33.9332 4.39777C33.9332 5.69917 32.8949 6.73417 31.5896 6.73417C30.2846 6.73417 29.246 5.69917 29.246 4.39777C29.246 3.09601 30.2846 2.06064 31.5896 2.06064Z" fill="#ABAFB6"/>
<path fill-rule="evenodd" clip-rule="evenodd" d="M31.755 13.4683C30.9461 13.4863 30.135 13.5205 29.3225 13.5806L29.4478 15.5722C30.2283 15.5156 31.0101 15.4793 31.7925 15.4631L31.755 13.4683ZM27.444 13.7635C26.1948 13.9187 24.9348 14.1397 23.6892 14.495L24.1583 16.425C25.2901 16.1024 26.463 15.894 27.6542 15.746L27.444 13.7635ZM21.824 15.1632C21.4508 15.3279 21.0895 15.5184 20.7426 15.7331L20.7411 15.7349L20.739 15.7356C20.244 16.0474 19.7223 16.443 19.2965 17.0179C18.9879 17.4345 18.7356 17.9611 18.6765 18.5839L20.5107 18.7873C20.5244 18.6412 20.5993 18.4482 20.7339 18.2668H20.7347V18.2661C20.9517 17.9723 21.2772 17.7055 21.6642 17.4615L21.6656 17.4607C21.9415 17.2905 22.2287 17.1394 22.5253 17.0086L21.824 15.1632ZM20.8797 19.6758L19.6907 21.2004C19.9725 21.4582 20.2681 21.6562 20.5536 21.8218L20.5572 21.8236L20.5608 21.8257C21.5083 22.3647 22.4854 22.6689 23.3911 22.9576L23.9117 21.0431C23.0063 20.7544 22.1527 20.4757 21.4212 20.0603C21.2117 19.9386 21.0281 19.8115 20.8797 19.6758ZM25.6804 21.5817L25.172 23.4994L25.4125 23.5743L25.7077 23.6686C26.6848 23.9865 27.6208 24.3259 28.4574 24.7957L29.3063 23.0245C28.2947 22.4561 27.2446 22.0846 26.2326 21.7555L26.2297 21.7548L25.9266 21.658L25.6804 21.5817ZM31.0325 24.3537L29.7282 25.7649C30.0364 26.0986 30.2671 26.5 30.3794 26.9147L30.3802 26.9169L30.3809 26.9201C30.5148 27.4043 30.5152 27.9738 30.4104 28.5491L32.2191 28.935C32.3667 28.1229 32.3904 27.2311 32.1478 26.3509C31.9365 25.5726 31.5332 24.8965 31.0325 24.3537ZM29.779 29.7515C29.5797 29.962 29.3594 30.1516 29.1216 30.3174H29.1209C28.4729 30.7732 27.7212 31.1166 26.9227 31.4118L27.5182 33.2997C28.3915 32.9768 29.2883 32.5808 30.1264 31.9911L30.1285 31.9893L30.1296 31.9886C30.4738 31.7476 30.7922 31.4717 31.0796 31.1652L29.779 29.7515ZM25.2286 31.9436C24.0719 32.2546 22.8896 32.4915 21.693 32.6924L21.9752 34.6648C23.2068 34.4578 24.4434 34.2105 25.6724 33.88L25.2286 31.9436ZM19.8926 32.9645C18.6881 33.129 17.477 33.2633 16.2624 33.3778L16.4215 35.3657C17.6549 35.2498 18.8904 35.1134 20.1241 34.9445L19.8926 32.9645ZM14.4368 33.5344C13.2197 33.6309 11.9996 33.7094 10.7785 33.7756L10.8707 35.7686C12.1037 35.702 13.3377 35.6224 14.5715 35.5245L14.4368 33.5344ZM8.94357 33.8656C8.21169 33.8998 7.478 33.9279 6.74252 33.9538L6.803 35.9486C7.54308 35.9231 8.28301 35.8936 9.02277 35.86L8.94357 33.8656Z" fill="#ABAFB6"/>
</svg>
