<svg width="1013" height="115" viewBox="0 0 1013 115" fill="none" xmlns="http://www.w3.org/2000/svg">
<path d="M0 0H1013V107C1013 111.418 1009.42 115 1005 115H7.99998C3.5817 115 0 111.418 0 107V0Z" fill="#DADADA"/>
<path d="M26.1667 81.5H40.8333M33.5 98C24.3873 98 17 90.6127 17 81.5C17 72.3873 24.3873 65 33.5 65C42.6127 65 50 72.3873 50 81.5C50 90.6127 42.6127 98 33.5 98Z" stroke="white" stroke-width="3" stroke-linecap="round" stroke-linejoin="round"/>
<path d="M26.1667 28.5H33.5M33.5 28.5H40.8333M33.5 28.5V35.8333M33.5 28.5V21.1667M33.5 45C24.3873 45 17 37.6127 17 28.5C17 19.3873 24.3873 12 33.5 12C42.6127 12 50 19.3873 50 28.5C50 37.6127 42.6127 45 33.5 45Z" stroke="white" stroke-width="3" stroke-linecap="round" stroke-linejoin="round"/>
</svg>
