<svg width="34" height="26" viewBox="0 0 34 26" fill="none" xmlns="http://www.w3.org/2000/svg">
<path d="M8.01522 7.07692H25.9861M8.01522 7.07692C7.08332 7.07692 6.6162 7.07692 6.26026 7.26137C5.94717 7.42362 5.6928 7.68232 5.53327 8.00075C5.35191 8.36276 5.35191 8.837 5.35191 9.78478V18.5848C5.35191 20.4803 5.35191 21.4283 5.71463 22.1523C6.03369 22.7892 6.54243 23.307 7.16862 23.6315C7.8798 24 8.81128 24 10.6715 24H23.3273C25.1875 24 26.1176 24 26.8288 23.6315C27.455 23.307 27.966 22.7891 28.2851 22.1522C28.6474 21.4289 28.6474 20.4828 28.6474 18.5909V9.76943C28.6474 8.83187 28.6474 8.3608 28.4671 8.00075C28.3075 7.68232 28.052 7.42362 27.7389 7.26137C27.3829 7.07692 26.918 7.07692 25.9861 7.07692M8.01522 7.07692H5.31082C3.89795 7.07692 3.19194 7.07692 2.79096 6.82572C2.25585 6.49049 1.95245 5.87673 2.0061 5.23988C2.04633 4.76224 2.46687 4.18458 3.30932 3.0279C3.55299 2.69335 3.67485 2.52603 3.82399 2.39829C4.02286 2.22795 4.25885 2.10699 4.5118 2.04585C4.70151 2 4.90514 2 5.31453 2H28.6839C29.0933 2 29.2974 2 29.4872 2.04585C29.7401 2.10699 29.976 2.22795 30.1749 2.39829C30.324 2.52603 30.4463 2.69257 30.69 3.02712C31.5324 4.18379 31.9537 4.76215 31.9939 5.23978C32.0476 5.87663 31.7431 6.49049 31.208 6.82572C30.807 7.07692 30.0993 7.07692 28.6864 7.07692H25.9861M13.6717 15.5385H20.3276" stroke="#2F2E40" stroke-opacity="0.8" stroke-width="3" stroke-linecap="round" stroke-linejoin="round"/>
</svg>
