<svg width="20" height="16" viewBox="0 0 20 16" fill="none" xmlns="http://www.w3.org/2000/svg">
<path d="M19.197 2.04325C18.5086 2.3492 17.782 2.54042 17.0171 2.65516C17.782 2.19623 18.3939 1.46959 18.6616 0.589974C17.935 1.01066 17.1318 1.31661 16.2522 1.50783C15.5638 0.781195 14.5695 0.322266 13.4986 0.322266C11.4335 0.322266 9.75072 2.00501 9.75072 4.07019C9.75072 4.37614 9.78896 4.64385 9.86545 4.91156C6.76768 4.75858 3.97586 3.26706 2.1019 0.972415C1.79595 1.54608 1.60473 2.15798 1.60473 2.84638C1.60473 4.14668 2.25488 5.294 3.28747 5.98239C2.67556 5.94415 2.1019 5.79117 1.56648 5.52346V5.56171C1.56648 7.39742 2.86678 8.92719 4.58776 9.27138C4.28181 9.34787 3.93762 9.38612 3.59342 9.38612C3.36395 9.38612 3.09625 9.34787 2.86678 9.30963C3.36395 10.8011 4.74074 11.9102 6.38524 11.9102C5.08494 12.9046 3.47869 13.5165 1.71946 13.5165C1.41351 13.5165 1.10755 13.5165 0.839844 13.4782C2.52258 14.5491 4.47303 15.161 6.6147 15.161C13.5369 15.161 17.323 9.42436 17.323 4.45263C17.323 4.29965 17.323 4.10843 17.323 3.95546C18.0497 3.45828 18.6998 2.80813 19.197 2.04325Z" fill="white"/>
</svg>
