<svg width="98" height="240" viewBox="0 0 98 240" fill="none" xmlns="http://www.w3.org/2000/svg">
<path fill-rule="evenodd" clip-rule="evenodd" d="M83.7604 0.218032C87.9799 1.33128 91.9411 5.33422 92.7767 9.32906C94.1475 15.8834 91.2136 22.3094 85.4978 25.2725C83.5374 26.2887 83.395 26.314 79.721 26.2993C76.1938 26.2852 75.8366 26.2256 74.1089 25.3661C71.988 24.3106 69.3694 22.0807 69.0675 21.0726C68.9541 20.694 68.4199 19.6857 67.88 18.8314C66.9095 17.2953 66.8986 17.2335 66.8986 13.2137C66.8986 10.3715 67.0347 8.82034 67.3516 8.05664C68.6063 5.0318 71.4097 1.87401 73.9146 0.664328C75.1359 0.0744659 82.0314 -0.23794 83.7604 0.218032ZM35.4785 13.8379C40.1455 15.4377 40.9192 16.1643 85.6339 60.9232C107.617 82.9279 129.546 104.788 134.366 109.501C139.186 114.214 144.921 119.967 147.109 122.284C149.297 124.601 153.172 128.463 155.72 130.867C158.268 133.27 161.234 136.219 162.311 137.421C164.846 140.247 167.957 142.949 169.888 144C171.251 144.741 171.663 144.816 173.598 144.678C176.259 144.487 177.854 143.503 179.288 141.166C180.133 139.788 180.245 139.329 180.246 137.252C180.247 135.136 180.143 134.728 179.209 133.195C178.638 132.258 177.117 130.227 175.829 128.682C174.541 127.137 156.161 108.528 134.987 87.3291C101.546 53.8505 96.2631 48.4366 94.783 46.1324C91.5102 41.0374 90.8542 38.3025 92.0411 34.7019C94.545 27.1057 102.361 23.066 109.357 25.7519C110.564 26.215 112.138 26.9875 112.856 27.4684C113.574 27.9493 114.318 28.3429 114.509 28.3429C114.7 28.3429 128.305 41.7409 144.742 58.1159C161.178 74.491 178.421 91.632 183.058 96.207C187.695 100.782 205.399 118.399 222.402 135.356C256.443 169.307 256.212 169.098 259.662 169.098C262.679 169.098 264.133 168.247 265.719 165.551C266.188 164.755 266.715 164.105 266.89 164.105C267.107 164.105 267.21 176.345 267.21 202.024V239.944H245.813H224.416L224.119 239.164C223.956 238.735 223.714 238.383 223.581 238.383C223.448 238.383 222.962 237.997 222.503 237.525C219.046 233.977 216.134 231.083 214.418 229.489C213.31 228.459 210.329 225.471 207.795 222.849C205.261 220.227 202.77 217.828 202.26 217.518C201.75 217.208 200.921 216.404 200.418 215.731C198.849 213.635 190.916 205.71 189.849 205.173C189.291 204.891 188.834 204.502 188.834 204.307C188.834 203.867 182.13 196.956 177.53 192.655C176.792 191.965 173.588 188.671 170.411 185.336C163.193 177.759 134.981 149.383 72.853 87.2105C46.2453 60.5837 23.783 37.9555 22.9371 36.9255C19.5644 32.8199 18.3269 28.9268 18.9683 24.4417C20.1667 16.0638 27.7549 11.1901 35.4785 13.8379ZM30.824 70.3707C31.9353 70.7886 33.6087 71.7199 34.543 72.4402C35.4772 73.1605 55.5749 93.0626 79.2045 116.667C122.311 159.727 131.002 168.315 134.19 170.993C135.134 171.787 139.069 175.518 142.933 179.285C146.797 183.051 151.504 187.591 153.393 189.373C155.282 191.155 157.06 192.99 157.343 193.451C157.626 193.912 158.603 194.906 159.514 195.66C161.075 196.952 164.254 200.081 170.84 206.809C172.407 208.411 174.674 210.679 175.876 211.851C177.078 213.022 178.706 214.661 179.494 215.493C180.282 216.325 181.623 217.567 182.474 218.253C183.326 218.94 185.07 220.684 186.35 222.128C187.631 223.573 190.567 226.593 192.876 228.839C195.184 231.084 197.432 233.316 197.872 233.797C198.311 234.278 199.689 235.711 200.934 236.98C202.179 238.249 203.198 239.435 203.198 239.616C203.198 239.844 187.59 239.944 151.908 239.944H100.618L100.227 239.086C100.011 238.614 98.8345 237.385 97.6126 236.355C96.3908 235.325 95.0974 234.131 94.738 233.702C94.2312 233.096 89.3816 228.253 84.323 223.301C84.1176 223.1 82.9232 221.827 81.6689 220.473C80.4149 219.12 78.2172 216.982 76.7852 215.723C75.3532 214.464 73.7922 212.903 73.3167 212.254C72.478 211.111 68.3559 206.982 65.4934 204.418C64.7206 203.725 63.83 202.881 63.5147 202.541C62.9635 201.947 55.6158 194.592 54.0652 193.082C53.6517 192.679 51.6627 190.611 49.6455 188.487C47.628 186.362 43.659 182.433 40.8252 179.756C34.9723 174.226 30.5523 169.31 27.9765 165.466C25.0729 161.133 24.2289 156.668 25.5225 152.482C26.7456 148.523 30.1761 145.525 34.527 144.61C38.2345 143.83 40.6398 144.034 44.26 145.435C47.0226 146.504 48.9358 148.139 57.687 156.911C72.843 172.103 75.7669 174.832 78.0539 175.924C79.1852 176.463 80.7346 176.99 81.4971 177.094C84.2862 177.477 87.3716 175.265 88.5994 172.005C89.9371 168.451 88.8751 165.153 85.2017 161.452C84.0089 160.25 78.4895 154.749 72.9363 149.227C42.7325 119.192 16.4574 92.5963 15.7958 91.3898C15.3933 90.6563 14.8696 89.7004 14.632 89.2653C12.464 85.2964 12.5483 80.6839 14.8631 76.6401C15.9048 74.8206 19.5656 71.1001 20.3144 71.1001C20.5699 71.1001 21.5307 70.7502 22.4493 70.323C24.7138 69.2693 27.9444 69.2877 30.824 70.3707ZM243.269 96.5003C245.173 97.1782 246.833 98.0059 247.641 98.68C248.357 99.2777 252.828 103.619 257.575 108.326C262.323 113.034 266.433 116.973 266.709 117.078C267.162 117.252 267.21 119.232 267.21 137.723C267.21 150.334 267.097 158.175 266.916 158.175C266.754 158.175 266.157 157.587 265.589 156.869C265.021 156.151 259.217 150.177 252.691 143.593C227.373 118.054 227.011 117.662 225.295 113.931C224.474 112.146 224.327 111.45 224.317 109.322C224.308 107.192 224.462 106.428 225.342 104.247C226.249 101.999 226.659 101.418 228.637 99.5757C231.398 97.005 234.108 95.8206 237.804 95.57C239.976 95.4227 240.488 95.5098 243.269 96.5003ZM17.5235 115.145C24.1398 117.098 28.0434 123.458 26.657 130.026C24.8852 138.418 17.8151 142.939 9.74643 140.838C5.07446 139.622 2.39722 136.602 0.534302 130.445C-0.344086 127.543 -0.187012 126.022 1.3605 122.461C2.82657 119.087 5.31586 116.519 8.14206 115.463C10.8178 114.464 14.7622 114.33 17.5235 115.145Z" fill="url(#paint0_linear_0_10608)"/>
<defs>
<linearGradient id="paint0_linear_0_10608" x1="473.3" y1="-36.3956" x2="-63.7592" y2="-33.8191" gradientUnits="userSpaceOnUse">
<stop offset="0.174199" stop-color="#1348F9"/>
<stop offset="0.774517" stop-color="#1E86FA"/>
</linearGradient>
</defs>
</svg>
